<svg width="378" height="17" viewBox="0 0 378 17" fill="none" xmlns="http://www.w3.org/2000/svg">
<g clip-path="url(#clip0_52_1029)">
<path d="M366.97 17L352.22 2.25L354.47 0L369.22 14.75L366.97 17ZM281.07 17L266.32 2.25L268.57 0L283.32 14.75L281.07 17ZM255.29 17L240.54 2.25L242.79 0L257.54 14.75L255.29 17ZM220.93 17L206.18 2.25L208.43 0L223.18 14.75L220.93 17ZM186.57 17L171.82 2.25L174.07 0L188.82 14.75L186.57 17ZM143.61 17L128.86 2.25L131.11 0L145.86 14.75L143.61 17ZM109.25 17L94.5 2.25L96.75 0L111.5 14.75L109.25 17ZM375.56 17L360.81 2.25L363.06 0L377.81 14.75L375.56 17ZM358.38 17L343.63 2.25L345.88 0L360.63 14.75L358.38 17ZM349.79 17L335.04 2.25L337.29 0L352.04 14.75L349.79 17ZM341.2 17L326.45 2.25L328.7 0L343.45 14.75L341.2 17ZM332.61 17L317.86 2.25L320.11 0L334.86 14.75L332.61 17ZM324.02 17L309.27 2.25L311.52 0L326.27 14.75L324.02 17ZM315.43 17L300.68 2.25L302.93 0L317.68 14.75L315.43 17ZM306.84 17L292.09 2.25L294.34 0L309.09 14.75L306.84 17ZM298.25 17L283.5 2.25L285.75 0L300.5 14.75L298.25 17ZM289.66 17L274.91 2.25L277.16 0L291.91 14.75L289.66 17ZM272.47 17L257.72 2.25L259.97 0L274.72 14.75L272.47 17ZM263.88 17L249.13 2.25L251.38 0L266.13 14.75L263.88 17ZM246.7 17L231.95 2.25L234.2 0L248.95 14.75L246.7 17ZM238.11 17L223.36 2.25L225.61 0L240.36 14.75L238.11 17ZM229.52 17L214.77 2.25L217.02 0L231.77 14.75L229.52 17ZM212.34 17L197.59 2.25L199.84 0L214.59 14.75L212.34 17ZM203.75 17L189 2.25L191.25 0L206 14.75L203.75 17ZM195.16 17L180.41 2.25L182.66 0L197.41 14.75L195.16 17ZM177.98 17L163.23 2.25L165.48 0L180.23 14.75L177.98 17ZM169.39 17L154.64 2.25L156.89 0L171.64 14.75L169.39 17ZM160.79 17L146.04 2.25L148.29 0L163.04 14.75L160.79 17ZM152.2 17L137.45 2.25L139.7 0L154.45 14.75L152.2 17ZM135.02 17L120.27 2.25L122.52 0L137.27 14.75L135.02 17ZM126.43 17L111.68 2.25L113.93 0L128.68 14.75L126.43 17ZM117.84 17L103.09 2.25L105.34 0L120.09 14.75L117.84 17ZM100.66 17L85.91 2.25L88.16 0L102.91 14.75L100.66 17ZM92.07 17L77.32 2.25L79.57 0L94.32 14.75L92.07 17ZM83.48 17L68.73 2.25L70.98 0L85.73 14.75L83.48 17ZM74.89 17L60.14 2.25L62.39 0L77.14 14.75L74.89 17ZM66.3 17L51.55 2.25L53.8 0L68.55 14.75L66.3 17ZM57.71 17L42.96 2.25L45.21 0L59.96 14.75L57.71 17ZM49.12 17L34.37 2.25L36.62 0L51.37 14.75L49.12 17ZM40.52 17L25.77 2.25L28.02 0L42.77 14.75L40.52 17ZM31.93 17L17.18 2.25L19.43 0L34.18 14.75L31.93 17ZM23.34 17L8.59 2.25L10.84 0L25.59 14.75L23.34 17ZM14.75 17L0 2.25L2.25 0L17 14.75L14.75 17Z" fill="#E2FCF2"/>
</g>
<defs>
<clipPath id="clip0_52_1029">
<rect width="377.81" height="17" fill="white"/>
</clipPath>
</defs>
</svg>
