<svg width="383" height="277" viewBox="0 0 383 277" fill="none" xmlns="http://www.w3.org/2000/svg">
<g clip-path="url(#clip0_2005_1044)">
<path d="M165.118 263.2C149.111 271.998 130.732 277.006 111.221 277.006C54.424 277.006 7.36971 234.683 0 179.973H32.5721C39.6138 216.921 72.1923 244.919 111.214 244.919C121.832 244.919 131.973 242.851 141.259 239.082C143.246 241.65 145.356 244.174 147.606 246.659C154.565 254.365 161.06 259.983 165.118 263.207V263.2Z" fill="white" style="fill:white;fill-opacity:1;"/>
<path d="M165.118 263.2C149.111 271.998 130.732 277.006 111.221 277.006C54.424 277.006 7.36971 234.683 0 179.973H32.5721C39.6138 216.921 72.1923 244.919 111.214 244.919C121.832 244.919 131.973 242.851 141.259 239.082C143.246 241.65 145.356 244.174 147.606 246.659C154.565 254.365 161.06 259.983 165.118 263.207V263.2Z" fill="white" style="fill:white;fill-opacity:1;"/>
<path d="M222.635 151.096C214.654 148.264 206.217 146.087 197.452 144.648C194.506 144.167 191.497 143.775 188.449 143.473C178.725 108.226 146.172 88.9557 124.391 84.7111L100.231 80.0107L129.664 37.623L133.504 32.0942H51.6523V0H194.905L162.397 46.812L153.131 60.1814C187.317 74.8093 217.387 106.859 222.641 151.102L222.635 151.096Z" fill="white" style="fill:white;fill-opacity:1;"/>
<path d="M352.627 175.381C348.589 177.443 344.287 178.22 339.804 177.86C332.91 177.314 327.001 179.697 321.528 183.588C316.364 187.248 311.997 191.762 307.676 196.347C303.586 200.695 299.605 205.17 295.039 209.055C290.036 213.306 284.435 216.26 277.785 216.902C272.564 217.403 267.477 216.613 262.39 215.483C255.22 213.884 249.136 210.307 243.58 205.645C237.728 200.739 231.947 195.731 225.587 191.454C215.091 184.391 203.677 179.228 191.76 175.112C183.96 172.428 175.921 170.739 167.78 169.48C158.295 168.01 148.738 167.888 139.176 168.189C137.954 168.228 136.738 168.234 135.523 168.189C135.079 168.17 134.43 168.202 134.423 167.515C134.423 166.905 134.668 166.475 135.427 166.308C140.417 165.203 145.465 164.452 150.539 163.861C156.931 163.104 163.349 162.75 169.786 162.712C177.973 162.667 186.114 163.219 194.198 164.542C203.889 166.135 213.304 168.742 222.339 172.627C235.934 178.464 248.049 186.465 258.191 197.31C258.834 197.998 259.458 198.697 260.024 199.442C260.384 199.898 260.557 199.885 260.937 199.442C266.609 192.854 273.097 187.152 280.133 182.053C294.846 171.374 311.039 163.9 328.904 160.349C340.428 158.056 352.113 157.151 363.862 157.652C369.566 157.896 375.219 158.577 380.691 160.31C383.013 161.036 383.058 161.036 382.987 163.457C382.698 173.172 380.762 182.593 377.682 191.775C371.952 208.875 362.64 223.805 350.074 236.693C336.775 250.326 321.412 261.017 303.901 268.524C295.02 272.338 285.67 274.528 276.088 275.78C266.634 277.019 257.162 277.141 247.67 276.326C234.622 275.215 222.101 272.113 210.204 266.546C204.075 263.676 197.889 260.953 192.069 257.466C190.886 256.76 189.741 255.996 188.539 255.225C189.027 254.968 189.362 255.289 189.703 255.437C198.384 259.155 207.452 261.396 216.821 262.43C238.094 264.774 258.043 260.484 276.879 250.518C284.93 246.261 292.486 241.323 298.981 234.876C303.972 229.918 307.959 224.203 311.637 218.257C315.155 212.555 318.634 206.84 323.02 201.722C326.93 197.163 331.489 193.329 336.235 189.669C341.489 185.611 346.711 181.514 351.515 176.916C351.965 176.492 352.454 176.088 352.756 175.535C352.859 175.51 352.949 175.458 352.878 175.356C352.859 175.324 352.724 175.375 352.64 175.388" fill="white" style="fill:white;fill-opacity:1;"/>
<path d="M209.246 251.661C201.69 251.43 194.217 250.55 186.905 248.566C177.748 246.068 170.121 241.034 164.005 233.906C150.507 218.186 140.681 200.528 136.179 180.146C135.529 177.205 135.079 174.213 134.874 171.195C134.796 169.987 134.816 170.013 136.018 170.18C145.388 171.503 154.385 174.155 163.156 177.603C175.298 182.374 187.278 187.524 198.686 193.869C208.249 199.198 217.117 205.511 224.821 213.358C227.844 216.446 230.551 219.785 232.667 223.574C236.808 231.016 236.172 237.11 230.615 243.57C226.853 247.943 222.005 250.229 216.41 251.147C214.03 251.546 211.645 251.661 209.239 251.661" fill="white" style="fill:white;fill-opacity:1;"/>
<path d="M320.28 58.1458C319.592 57.3239 319.251 56.1102 319.251 54.492V49.8237H317.47C317.374 49.8237 317.296 49.798 317.245 49.7402C317.193 49.6824 317.174 49.6118 317.174 49.5219V47.4221C317.174 47.223 317.271 47.1203 317.47 47.1203H319.251V43.8839C319.251 43.8004 319.277 43.7298 319.322 43.672C319.374 43.6142 319.451 43.5885 319.547 43.5885H321.952C322.036 43.5885 322.107 43.6142 322.165 43.672C322.222 43.7298 322.248 43.8004 322.248 43.8839V47.1203H325.097C325.296 47.1203 325.399 47.223 325.399 47.4221V49.5219C325.399 49.6118 325.373 49.6824 325.322 49.7402C325.271 49.798 325.2 49.8237 325.097 49.8237H322.248V54.6847C322.248 55.3461 322.357 55.8341 322.57 56.1552C322.782 56.4763 323.129 56.6368 323.599 56.6368C323.972 56.6368 324.267 56.4442 324.499 56.0589C324.595 55.8726 324.737 55.8213 324.904 55.9048L326.724 56.7203C326.84 56.7588 326.898 56.8487 326.898 56.9771C326.898 57.0157 326.872 57.0991 326.814 57.2083C326.01 58.6531 324.827 59.3723 323.251 59.3723C321.952 59.3723 320.956 58.9613 320.274 58.1394L320.28 58.1458Z" fill="white" style="fill:white;fill-opacity:1;"/>
<path d="M328.537 58.8393V42.0538C328.537 41.8547 328.634 41.752 328.833 41.752H331.232C331.431 41.752 331.534 41.8547 331.534 42.0538V48.6036C331.978 48.0514 332.531 47.6211 333.193 47.3322C333.856 47.0432 334.57 46.8955 335.328 46.8955C336.711 46.8955 337.791 47.2872 338.57 48.0706C339.348 48.854 339.727 49.9392 339.727 51.3263V58.8457C339.727 58.942 339.695 59.0191 339.637 59.0705C339.579 59.1218 339.508 59.1411 339.425 59.1411H337.026C336.827 59.1411 336.724 59.0448 336.724 58.8457V52.5463C336.724 51.551 336.537 50.8126 336.158 50.3438C335.779 49.875 335.193 49.6374 334.409 49.6374C333.624 49.6374 332.93 49.9328 332.37 50.5172C331.811 51.1015 331.534 51.9363 331.534 53.0215V58.8457C331.534 59.0448 331.431 59.1411 331.232 59.1411H328.833C328.634 59.1411 328.537 59.0448 328.537 58.8457V58.8393Z" fill="white" style="fill:white;fill-opacity:1;"/>
<path d="M254.686 46.2791H263.271V37.7065H254.686V46.2791ZM266.551 46.2791H275.136V37.7065H266.551V46.2791ZM278.422 46.2791H287.007V37.7065H278.422V46.2791ZM242.815 46.2791H251.4V37.7065H242.815V46.2791ZM230.95 46.2791H239.535V37.7065H230.95V46.2791ZM254.686 59.1347H263.271V50.5621H254.686V59.1347ZM266.551 59.1347H275.136V50.5621H266.551V59.1347ZM278.422 59.1347H287.007V50.5621H278.422V59.1347ZM242.815 59.1347H251.4V50.5621H242.815V59.1347ZM230.95 59.1347H239.535V50.5621H230.95V59.1347ZM207.207 59.1347H215.792V50.5621H207.207V59.1347ZM219.079 59.1347H227.664V50.5621H219.079V59.1347ZM302.158 59.1347H310.743V50.5621H302.158V59.1347ZM290.293 59.1347H298.879V50.5621H290.293V59.1347ZM254.686 71.9903H263.271V63.4178H254.686V71.9903ZM266.551 71.9903H275.136V63.4178H266.551V71.9903ZM278.422 71.9903H287.007V63.4178H278.422V71.9903ZM242.815 71.9903H251.4V63.4178H242.815V71.9903ZM230.95 71.9903H239.535V63.4178H230.95V71.9903ZM302.158 71.9903H310.743V63.4178H302.158V71.9903ZM314.03 71.9903H322.615V63.4178H314.03V71.9903ZM325.901 71.9903H334.486V63.4178H325.901V71.9903ZM290.293 71.9903H298.879V63.4178H290.293V71.9903ZM207.207 71.9903H215.792V63.4178H207.207V71.9903ZM219.079 71.9903H227.664V63.4178H219.079V71.9903ZM254.686 84.8524H263.271V76.2798H254.686V84.8524ZM266.551 84.8524H275.136V76.2798H266.551V84.8524ZM278.422 84.8524H287.007V76.2798H278.422V84.8524ZM242.815 84.8524H251.4V76.2798H242.815V84.8524ZM230.95 84.8524H239.535V76.2798H230.95V84.8524ZM314.03 84.8524H322.615V76.2798H314.03V84.8524ZM325.901 84.8524H334.486V76.2798H325.901V84.8524ZM337.766 84.8524H346.351V76.2798H337.766V84.8524ZM302.158 84.8524H310.743V76.2798H302.158V84.8524ZM290.293 84.8524H298.879V76.2798H290.293V84.8524ZM219.079 84.8524H227.664V76.2798H219.079V84.8524ZM254.686 97.7081H263.271V89.1355H254.686V97.7081ZM266.551 97.7081H275.136V89.1355H266.551V97.7081ZM278.422 97.7081H287.007V89.1355H278.422V97.7081ZM242.815 97.7081H251.4V89.1355H242.815V97.7081ZM230.95 97.7081H239.535V89.1355H230.95V97.7081ZM219.079 97.7081H227.664V89.1355H219.079V97.7081ZM314.03 97.7081H322.615V89.1355H314.03V97.7081ZM325.901 97.7081H334.486V89.1355H325.901V97.7081ZM337.766 97.7081H346.351V89.1355H337.766V97.7081ZM302.158 97.7081H310.743V89.1355H302.158V97.7081ZM290.293 97.7081H298.879V89.1355H290.293V97.7081ZM254.686 110.564H263.271V101.991H254.686V110.564ZM266.551 110.564H275.136V101.991H266.551V110.564ZM278.422 110.564H287.007V101.991H278.422V110.564ZM242.815 110.564H251.4V101.991H242.815V110.564ZM230.95 110.564H239.535V101.991H230.95V110.564ZM314.03 110.564H322.615V101.991H314.03V110.564ZM325.901 110.564H334.486V101.991H325.901V110.564ZM337.766 110.564H346.351V101.991H337.766V110.564ZM349.952 97.7081H358.537V89.1355H349.952V97.7081ZM349.952 110.564H358.537V101.991H349.952V110.564ZM302.158 110.564H310.743V101.991H302.158V110.564ZM290.293 110.564H298.879V101.991H290.293V110.564ZM254.686 123.419H263.271V114.847H254.686V123.419ZM266.551 123.419H275.136V114.847H266.551V123.419ZM278.422 123.419H287.007V114.847H278.422V123.419ZM242.815 123.419H251.4V114.847H242.815V123.419ZM230.95 123.419H239.535V114.847H230.95V123.419ZM254.686 136.281H263.271V127.709H254.686V136.281ZM266.551 136.281H275.136V127.709H266.551V136.281ZM278.422 136.281H287.007V127.709H278.422V136.281ZM242.815 136.281H251.4V127.709H242.815V136.281ZM254.686 149.137H263.271V140.564H254.686V149.137ZM266.551 149.137H275.136V140.564H266.551V149.137ZM278.422 149.137H287.007V140.564H278.422V149.137ZM242.815 149.137H251.4V140.564H242.815V149.137ZM322.93 114.853H314.345V123.426H322.93V114.853ZM311.059 114.853H302.473V123.426H311.059V114.853ZM299.187 114.853H290.602V123.426H299.187V114.853ZM334.795 114.853H326.21V123.426H334.795V114.853ZM346.666 114.853H338.081V123.426H346.666V114.853ZM358.537 114.853H349.952V123.426H358.537V114.853ZM370.402 114.853H361.817V123.426H370.402V114.853ZM322.93 127.709H314.345V136.281H322.93V127.709ZM311.059 127.709H302.473V136.281H311.059V127.709ZM299.187 127.709H290.602V136.281H299.187V127.709ZM334.795 127.709H326.21V136.281H334.795V127.709ZM346.666 127.709H338.081V136.281H346.666V127.709ZM358.537 127.709H349.952V136.281H358.537V127.709ZM370.402 127.709H361.817V136.281H370.402V127.709ZM311.059 140.564H302.473V149.137H311.059V140.564ZM299.187 140.564H290.602V149.137H299.187V140.564ZM254.686 161.993H263.271V153.42H254.686V161.993ZM266.551 161.993H275.136V153.42H266.551V161.993Z" fill="white" style="fill:white;fill-opacity:1;"/>
</g>
<defs>
<clipPath id="clip0_2005_1044">
<rect width="383" height="277" fill="white" style="fill:white;fill-opacity:1;"/>
</clipPath>
</defs>
</svg>
