<svg width="695" height="160" viewBox="0 0 695 160" fill="none" xmlns="http://www.w3.org/2000/svg">
<g clip-path="url(#clip0_2005_136)">
<path d="M45.9562 32.8349V36.262C45.8971 36.7654 45.6164 36.9948 45.1732 36.9948L31.4846 36.9356L31.5363 43.0052C31.5363 43.5677 31.3147 43.7898 30.8641 43.7898C29.4088 43.849 27.4438 43.849 26.0402 43.7898C25.5378 43.7306 25.3088 43.4493 25.3088 43.0052L25.3679 36.9356C21.0464 36.9948 16.6731 37.0466 12.684 37.1577C12.1817 37.1577 11.9527 36.9356 11.901 36.4841C11.8419 35.4182 11.7902 33.8416 11.7902 32.7757C11.7902 32.3242 12.0118 32.1021 12.5215 32.1614C16.6731 32.4426 20.8248 32.3834 25.427 32.3834V29.5707C21.4453 29.5707 17.3454 29.6299 13.7552 29.7927C13.2528 29.7927 13.0238 29.5707 12.9721 29.0599C12.913 27.9941 12.8613 26.5285 12.8613 25.4626C12.8613 25.0111 13.0829 24.789 13.5927 24.8409C15.7276 24.9519 17.8551 25.0111 20.0417 25.0629L19.9309 24.8927C19.1996 23.4863 18.4165 22.2502 17.5744 21.0141C17.3528 20.6218 17.4045 20.2813 17.8551 20.0592C18.7563 19.6077 19.8718 19.1562 20.943 18.8231H9.83255V43.9526C9.77345 44.456 9.55183 44.7372 9.10121 44.7372C7.69763 44.8483 5.51101 44.8483 4.10743 44.7372C3.546 44.678 3.32438 44.456 3.32438 43.9526V41.0881C3.32438 34.1155 3.38348 21.4064 3.38348 16.1288C3.32438 14.9445 3.32438 13.3753 3.32438 12.302C3.32438 11.8505 3.546 11.5692 4.05572 11.5692C5.45929 11.51 7.70502 11.51 9.16031 11.5692C9.66264 11.6284 9.89165 11.8505 9.89165 12.302V13.3679H25.1537L25.2128 9.94078C16.518 9.94078 8.93869 9.88156 0.975233 10.3331C0.524611 10.3849 0.243895 10.1628 0.192185 9.65951C0.0813758 8.36417 0.0222778 6.06217 0.0222778 4.76683C0.0222778 4.2635 0.302993 4.03404 0.805327 4.09326C8.77617 4.65581 16.3481 4.54478 25.1611 4.54478L25.102 2.85714C25.0429 2.40562 25.0429 1.90229 24.9912 1.33974C24.8804 0.888226 25.102 0.666168 25.6043 0.606953C27.2295 0.547737 29.756 0.547737 31.4403 0.717982C31.8909 0.777197 32.1716 1.05847 32.0534 1.50259C32.0017 2.00592 31.9426 2.40562 31.8835 2.84974L31.7727 4.53737C40.4675 4.53737 50.7358 4.36713 56.4092 4.14507C56.9115 4.09326 57.1922 4.36713 57.1922 4.81865C57.2513 6.1658 57.2513 8.02368 57.1922 9.31902C57.1922 9.88156 56.9115 10.1036 56.4092 10.0518C50.684 9.94078 40.4749 9.94078 31.721 9.94078V13.3679H48.4383L48.3792 12.2428C48.3792 11.7913 48.6008 11.51 49.1106 11.51H53.9935C54.4442 11.5692 54.6658 11.7913 54.6658 12.2428C54.6658 13.3087 54.6141 14.604 54.6141 15.8401V39.3412C54.6141 42.7165 53.2696 44.1229 49.672 44.3967C47.4263 44.5078 45.4613 44.5078 43.777 44.3967C43.1047 44.3449 42.7132 43.9452 42.6024 43.3309C42.4325 42.4278 42.2109 41.3101 41.9302 39.9556C41.7602 39.5633 41.9302 39.393 42.3217 39.4523C44.006 39.6225 45.5795 39.7335 47.3746 39.6225C48.0468 39.6225 48.3866 39.4004 48.4383 38.5566V18.8231H36.8773L40.1277 19.889C40.6891 20.1702 40.6374 20.4515 40.2385 20.9548L39.847 21.3471C39.5662 21.6876 39.3446 22.0799 39.1156 22.4722L37.4313 25.0037L44.1685 24.8335C44.6708 24.7742 44.8998 25.0555 44.9515 25.507V28.8823C44.8407 29.3856 44.6117 29.6151 44.1685 29.6151L31.4329 29.5559V32.3686C36.205 32.3686 41.7529 32.3168 45.1805 32.1466C45.6829 32.0873 45.9119 32.3686 45.9636 32.8201L45.9562 32.8349ZM22.8341 18.8897C23.7871 20.074 24.5701 21.2509 25.5305 22.9386C25.7521 23.3901 25.6413 23.7232 25.2497 23.8934C24.2377 24.3967 23.1148 24.789 22.1102 25.0703H30.9232L31.034 24.9001C32.4892 22.9904 33.8411 20.9622 34.7941 18.8305H22.7898L22.8489 18.8823L22.8341 18.8897Z" fill="white" style="fill:white;fill-opacity:1;"/>
<path d="M95.6058 44.7298C94.0914 44.7891 91.7866 44.7891 90.2722 44.7298C89.7699 44.6706 89.5409 44.3894 89.6 43.886C89.7108 39.2746 89.7699 32.8646 89.8216 27.2983C87.5759 31.5692 84.9977 35.6181 82.2496 38.7639C81.5183 39.4967 80.787 39.5485 80.063 38.8231C79.3908 38.2013 78.6003 37.3575 76.9234 36.0696C76.5836 35.7883 76.5836 35.5663 76.9234 35.285C80.9052 31.4064 85.1159 25.7291 87.9231 19.6521C84.7835 19.7113 81.6956 19.7631 78.556 19.8742C78.0463 19.8742 77.8247 19.6521 77.773 19.1414C77.6622 17.7942 77.6031 15.6551 77.6622 14.3079C77.6622 13.8564 77.9429 13.6344 78.3935 13.6344C82.2644 13.9156 85.6847 13.9748 89.5556 13.9748V8.18654C86.6377 8.46781 83.7197 8.74909 80.9717 8.97114C80.2403 9.03036 79.6789 8.68987 79.3465 7.95708C79.0066 7.17248 78.7333 6.38047 77.7213 4.35974C77.4996 3.90823 77.6105 3.68617 78.1128 3.68617C86.0245 3.46411 95.4507 2.10956 101.678 0.421921C102.129 0.251676 102.52 0.421921 102.801 0.762409C103.702 1.8875 104.877 3.4049 105.66 4.75205C106 5.37381 105.771 5.59587 105.098 5.7069C104.478 5.81792 103.976 5.87714 103.584 5.98817C102.971 6.0992 102.291 6.21023 101.567 6.38047L96.2337 7.2835V7.50556C96.1746 8.11992 96.1229 8.57144 96.1229 9.02296V13.9156C99.1 13.8564 102.18 13.8046 104.315 13.6936C104.818 13.6936 105.098 13.9156 105.098 14.3671C105.15 15.7143 105.15 17.7424 105.098 19.0304C105.039 19.5337 104.759 19.7631 104.315 19.7631L96.1229 19.6521C96.1229 25.4404 96.1746 36.8024 96.3445 43.9378C96.3445 44.4412 96.0638 44.7224 95.6132 44.7224L95.6058 44.7298ZM100.991 22.1836C102.336 24.3227 104.02 26.4545 105.874 28.4826C106.155 28.8231 106.155 29.1044 105.763 29.3857C104.64 30.1184 103.296 31.2435 102.114 31.9689C101.553 32.191 101.102 32.08 100.71 31.6284C98.9744 29.6077 97.6225 27.5278 96.278 25.3294C96.0564 24.9371 96.1081 24.5966 96.4997 24.2635C97.4009 23.5899 98.8562 22.6351 99.92 21.9541C100.311 21.6728 100.703 21.7839 100.984 22.1762L100.991 22.1836ZM129.27 45.0629C127.696 45.0629 125.45 45.0629 123.936 45.0037C123.434 44.9519 123.205 44.6632 123.205 44.1599L123.374 34.1525L119.954 34.8261C114.229 36.003 109.073 37.1281 103.739 38.4826C103.289 38.5936 102.956 38.4234 102.838 37.9719C102.446 36.6247 101.937 34.5966 101.715 33.3087C101.656 32.8053 101.826 32.5241 102.328 32.5241C107.773 31.7395 112.818 30.6662 118.824 29.3782L123.426 28.4234C123.485 18.8675 123.426 9.86678 123.145 3.73798C123.145 3.00519 123.035 2.22059 122.976 1.37677C122.916 0.873438 123.145 0.643978 123.596 0.643978C125.45 0.584763 127.689 0.643978 129.654 0.814223C130.156 0.873438 130.326 1.0955 130.267 1.54701C130.156 2.39083 129.986 2.95338 129.986 3.73798C129.705 9.5855 129.646 17.9645 129.705 27.017L135.15 25.7217C135.6 25.5515 135.933 25.7809 136.051 26.1732C136.332 27.4686 136.723 29.3783 136.952 30.6144C137.063 31.1251 136.841 31.399 136.391 31.4582L129.772 32.8053L129.942 44.2191C129.942 44.7224 129.72 45.0037 129.27 45.0629ZM110.077 15.8327C112.936 17.9127 116.534 20.1036 120.124 21.9615C120.516 22.1836 120.575 22.4649 120.294 22.8053C119.511 23.9304 118.499 25.5589 117.546 26.6321C117.154 27.0837 116.645 27.1355 116.091 26.8542C112.722 24.8853 109.413 22.6943 106.554 20.4441C106.162 20.1629 106.103 19.8224 106.384 19.3783C107.056 18.4234 108.12 16.906 108.962 15.8919C109.302 15.5515 109.693 15.4996 110.085 15.8401L110.077 15.8327ZM111.991 3.46411C114.628 5.54405 117.827 7.73502 121.195 9.65212C121.587 9.87418 121.646 10.1555 121.365 10.4959C120.523 11.5618 119.459 13.1976 118.506 14.2043C118.004 14.5966 117.494 14.6558 116.992 14.3153C113.852 12.4056 110.875 10.1555 108.238 7.96448C107.898 7.62399 107.846 7.29091 108.179 6.8986C108.851 5.88454 109.974 4.47818 110.875 3.52333C111.215 3.13103 111.547 3.13103 111.998 3.46411H111.991Z" fill="white" style="fill:white;fill-opacity:1;"/>
<path d="M174.694 45.0851H169.811C169.308 45.0259 169.079 44.8039 169.079 44.3523V38.7861C166.161 40.3627 163.184 41.6506 160.606 42.4426C159.934 42.6647 159.373 42.5019 158.863 42.0503C158.361 41.3768 157.74 40.4737 155.494 38.6233C155.154 38.342 155.214 38.1717 155.664 38.0607C161.722 36.7654 167.957 33.96 172.721 30.4737C167.668 30.5255 162.904 30.5848 158.191 30.8142C157.688 30.8734 157.459 30.644 157.408 30.1925C157.297 29.0674 157.238 27.3279 157.238 26.2028C157.238 25.7513 157.459 25.5293 157.969 25.5293C166.723 26.151 175.418 25.9808 185.856 25.9808C195.001 25.9808 207.124 25.8697 213.573 25.5885C214.075 25.5885 214.304 25.8105 214.304 26.262C214.363 27.3279 214.363 28.7935 214.304 29.8594C214.304 30.3627 214.083 30.5922 213.573 30.5922C207.116 30.4219 195.001 30.4811 185.856 30.4811H181.534C181.534 30.533 181.424 30.6514 181.254 30.7624C181.084 30.8734 180.914 30.9327 180.751 31.0437C180.36 31.325 180.02 31.6654 179.569 31.9985L178.727 32.6721H203.245C203.245 32.2206 203.526 31.9985 203.918 31.9985H208.911C209.414 32.1096 209.643 32.339 209.643 32.7831V44.1377C209.643 44.641 209.421 44.9223 208.911 44.9223H203.969C203.467 44.9223 203.238 44.641 203.238 44.1377V43.6862H175.41V44.3597C175.351 44.8113 175.13 45.0925 174.679 45.0925L174.694 45.0851ZM175.817 3.48632L175.706 3.82681H179.126L179.067 3.20505C179.008 2.75353 179.178 2.47226 179.688 2.47226C180.921 2.41304 182.376 2.41304 183.669 2.53147C184.172 2.59069 184.342 2.81274 184.231 3.26426C184.172 3.65656 184.12 4.21911 184.12 5.17396V11.7543L186.528 11.4138C186.639 11.4138 186.698 11.4138 186.75 11.473L185.797 10.6884C185.457 10.4071 185.457 10.1777 185.908 10.0666C189.889 8.60845 191.012 6.80238 190.34 1.63584C190.34 1.18432 190.51 0.903048 191.012 0.903048C192.305 0.903048 193.93 0.903048 195.223 1.01408C195.895 1.01408 196.006 1.29535 195.895 1.96892L195.784 2.87196H200.667V1.63584C200.608 1.13251 200.837 0.903048 201.34 0.851234H205.159C205.661 0.91045 205.831 1.13251 205.831 1.63584C205.72 2.81274 205.72 4.5596 205.661 5.7365C205.661 6.41008 205.883 6.69135 206.333 6.75057C206.895 6.8616 207.678 6.80978 208.298 6.80978C208.86 6.75057 209.141 6.58773 209.31 5.96596C209.421 5.29239 209.591 4.61881 209.65 3.88602C209.702 3.49372 209.872 3.43451 210.263 3.49372C211.275 3.83421 212.45 4.05627 213.403 4.33754C214.016 4.5596 214.245 5.01112 214.186 5.57366C214.075 6.35827 213.846 7.20209 213.625 8.10512C212.842 10.074 211.829 11.2509 209.081 11.4804C210.034 11.8209 210.987 12.265 211.829 12.7757C212.391 13.1162 212.339 13.3383 211.829 13.7306C211.549 13.9526 211.327 14.0711 211.157 14.1821C210.766 14.5226 210.426 14.8557 210.093 15.248C208.638 16.8764 206.895 18.3938 204.819 19.8002C207.678 20.4737 210.877 20.8142 214.356 20.866C214.807 20.866 214.917 21.0363 214.637 21.3694C213.514 23.057 213.122 23.9008 212.672 24.5744C212.28 25.1369 211.829 25.359 211.209 25.3072C206.887 25.1369 202.795 24.2931 199.035 22.8868C196.058 24.1229 192.637 25.0259 188.766 25.47C188.205 25.5293 187.703 25.359 187.304 24.8557C186.964 24.3523 186.521 23.5603 184.947 21.9911C184.607 21.6506 184.667 21.4878 185.117 21.4878C188.146 21.3176 190.894 20.866 193.369 20.2517C192.357 19.5781 191.293 18.9045 190.34 18.1717C189.948 17.8905 189.948 17.6092 190.281 17.2687C190.791 16.8172 191.293 16.4249 191.854 15.9734L188.766 16.0844C188.316 16.0844 188.035 15.8623 188.035 15.3516C187.976 14.5078 187.924 13.4937 187.924 12.6499C187.924 12.5389 187.924 12.4797 187.976 12.4278L186.801 11.5248C186.861 11.584 186.912 11.6951 186.912 11.8061C186.861 13.5529 186.861 14.3894 186.801 15.1814C186.742 15.7957 186.41 16.1954 185.849 16.1954L184.112 16.4175V22.0948C184.112 24.0637 183.27 24.9593 181.135 25.1888C180.072 25.248 179.06 25.248 178.107 25.1888C177.434 25.1295 177.095 24.7965 176.932 24.1229C176.873 23.5011 176.71 22.7165 176.371 21.5396C176.26 21.1473 176.371 20.9253 176.821 20.9771C177.161 21.0363 177.553 21.0881 178.055 21.0881C178.668 21.0881 179.008 20.9179 179.008 20.074V16.98C175.078 17.3205 170.926 17.5944 167.004 17.7646C166.331 20.2961 165.149 22.4278 163.303 24.8483C162.682 25.5811 161.958 25.7513 161.116 25.4108C160.495 25.0703 159.823 24.567 158.028 23.7824C157.526 23.5603 157.526 23.3309 157.917 22.9978C159.653 21.4212 160.835 19.963 161.508 18.0533H160.887C160.495 18.1051 160.156 18.1051 159.712 18.1643C159.21 18.2754 158.7 18.3864 158.25 18.5566C157.518 18.7269 157.238 18.4974 157.016 17.8238C156.676 16.6395 156.396 15.0111 156.396 13.4345C156.396 13.1532 156.565 12.983 156.846 12.983C158.53 13.0348 160.436 13.094 162.401 13.094C162.46 11.1251 162.401 7.2465 162.291 5.78832C162.231 5.11474 162.18 4.44117 162.069 3.4271C162.069 2.97559 162.239 2.75353 162.8 2.75353C164.093 2.69431 165.829 2.69431 167.174 2.75353C167.624 2.86456 167.846 3.09402 167.846 3.59735V3.81941H170.313C170.594 2.86456 170.764 1.90971 170.875 0.954861C170.875 0.562559 171.155 0.333099 171.547 0.333099C172.84 0.392315 174.686 0.555157 176.09 0.784617C176.703 0.954861 176.762 1.23613 176.481 1.79868C176.371 2.02074 176.312 2.13917 176.26 2.30201C176.09 2.69431 175.979 3.0348 175.809 3.48632H175.817ZM172.226 12.7609C171.214 12.0281 170.321 11.1843 169.368 10.2887C169.028 9.9482 169.028 9.66693 169.368 9.33384L170.49 8.26796H167.632L167.572 12.9904L172.226 12.7683V12.7609ZM174.583 24.567C173.46 24.6262 171.946 24.6262 170.823 24.5078C170.261 24.5078 170.04 24.2265 170.04 23.775C170.04 21.9171 169.988 20.5107 169.929 19.7261C169.929 19.3857 169.87 19.1636 169.818 18.7121C169.759 18.2606 169.988 18.0385 170.439 17.9793C171.953 17.9793 173.527 17.9793 174.93 18.0903C175.432 18.1495 175.602 18.4826 175.492 18.8749C175.381 19.1562 175.322 19.3264 175.322 19.5485V23.8194C175.322 24.2709 175.1 24.493 174.59 24.5522L174.583 24.567ZM176.489 10.6218C176.88 10.8438 176.939 11.1251 176.659 11.4064L175.484 12.5833L179.015 12.302V8.25316H173.179C174.191 9.03776 175.314 9.82977 176.489 10.6144V10.6218ZM175.425 36.9356V39.356H203.253V36.9356H175.425ZM195.23 7.2539C194.558 9.39306 193.376 11.0215 191.862 12.0874L198.03 12.1466H206.673L207.176 11.473L203.918 11.362C201.731 11.1399 200.83 10.2369 200.778 8.04591V7.2613H195.223L195.23 7.2539ZM198.037 15.9067H195.179C196.412 16.6914 197.757 17.4241 199.271 18.0459C200.564 17.3723 201.687 16.6988 202.751 15.9067H198.037Z" fill="white" style="fill:white;fill-opacity:1;"/>
<path d="M255.259 43.3605C253.745 43.4197 251.218 43.4197 249.704 43.3605C249.202 43.3605 248.973 43.1384 248.973 42.6277V37.2317L249.032 26.721C246.173 29.3042 243.085 31.6136 239.657 33.5825C238.926 33.9748 238.254 33.8638 237.692 33.3013C237.079 32.6277 236.23 31.5618 234.043 29.7039C233.762 29.3634 233.762 29.1414 234.154 28.9193C243.639 24.3079 250.871 16.8838 255.03 8.51222C248.744 8.51222 242.967 8.57144 236.68 8.96374C236.23 8.96374 235.949 8.74168 235.897 8.23095C235.727 6.76537 235.727 4.12288 235.727 2.6647C235.727 2.15397 236.008 1.99113 236.459 2.04294C245.552 2.6647 253.907 2.49446 264.175 2.49446C273.321 2.49446 285.443 2.38343 291.841 2.10216C292.343 2.04294 292.572 2.2724 292.624 2.77573C292.683 4.24131 292.683 6.4841 292.624 7.94968C292.565 8.45301 292.284 8.68247 291.841 8.68247C285.443 8.51222 273.38 8.51222 264.175 8.51222H262.661L262.439 8.96374C260.814 12.2798 258.738 15.5959 256.271 18.8009H280.398L280.339 16.8912C280.339 16.3879 280.56 16.1584 281.011 16.1066C282.636 16.1066 285.273 16.1066 286.906 16.1658C287.408 16.225 287.637 16.4471 287.578 16.9504C287.578 18.2458 287.519 19.9852 287.467 21.7321V42.4204C287.467 42.9238 287.246 43.1532 286.795 43.205C285.281 43.2643 282.644 43.2643 281.129 43.205C280.679 43.1458 280.457 42.9238 280.457 42.4204V40.2813H255.99V42.6425C255.99 43.1458 255.769 43.3753 255.259 43.3753V43.3605ZM255.99 24.752V34.2561H280.457V24.752H255.99Z" fill="white" style="fill:white;fill-opacity:1;"/>
<path d="M483.887 43.1902C483.437 43.3605 482.986 43.4715 482.594 43.701C481.922 43.9823 481.582 43.7602 481.302 43.1384C480.629 41.7321 479.957 39.5929 479.728 37.8535C479.669 37.513 479.839 37.3501 480.179 37.3501L485.793 36.8468C485.845 33.9822 485.845 31.0585 485.734 29.1414L482.085 29.4227C481.412 29.4819 480.91 29.1932 480.74 28.5196C480.519 27.735 480.349 27.0022 479.728 24.9223C479.617 24.53 479.728 24.3079 480.179 24.3079C487.81 24.1377 496.844 22.9016 502.961 21.325C503.412 21.2139 503.803 21.325 504.143 21.6654C505.207 22.7313 506.499 24.0267 507.452 25.2628C507.792 25.8845 507.622 26.1066 506.891 26.2176C506.278 26.3287 505.768 26.3879 505.436 26.4989C504.763 26.6099 504.143 26.721 503.419 26.8394C500.39 27.4019 496.349 28.0237 492.249 28.4678L492.19 28.9193C492.08 30.6588 492.02 33.3087 492.02 36.003C497.354 35.2702 502.739 34.2635 506.943 33.1902C507.283 33.131 507.504 33.2495 507.504 33.6418C507.615 35.8327 507.785 36.7876 507.844 37.6906C507.844 38.3642 507.563 38.7565 506.943 38.9267C500.154 40.5033 491.902 41.9097 484.951 42.9756C484.559 43.0348 484.279 43.0866 483.887 43.1976V43.1902ZM492.752 21.9985C491.237 22.0577 489.162 22.0577 487.699 21.9985C487.248 21.9985 487.027 21.7173 487.027 21.2657V4.67803C487.027 3.44191 486.968 2.31681 486.968 1.47299C486.968 0.969664 487.189 0.740204 487.64 0.740204C489.102 0.740204 491.341 0.740204 492.804 0.799419C493.254 0.799419 493.535 1.02888 493.535 1.47299L493.476 2.31681H523.889L523.83 1.47299C523.83 0.969664 524.052 0.740204 524.502 0.740204C525.958 0.740204 528.262 0.740204 529.777 0.799419C530.227 0.799419 530.449 1.02888 530.449 1.47299C530.39 2.42784 530.338 3.50112 530.338 4.567V21.2657C530.338 21.7173 530.117 21.9985 529.666 21.9985C528.152 22.0577 526.017 22.0577 524.62 21.9985C524.118 21.9985 523.889 21.7173 523.889 21.2657V20.3701H493.417V21.2657C493.417 21.7173 493.195 21.9985 492.744 21.9985H492.752ZM493.424 6.75797V9.00815H523.896V6.75797H493.424ZM523.896 13.3383H493.424V15.8105H523.896V13.3383ZM515.312 44.5966C513.857 44.7076 511.722 44.7076 510.378 44.5966C509.875 44.5966 509.646 44.3153 509.646 43.8712C509.646 37.3501 509.706 31.5026 509.706 25.5441C509.646 24.2487 509.646 23.4049 509.595 22.6203C509.484 22.117 509.706 21.8875 510.215 21.8875C511.671 21.8283 514.034 21.8283 515.601 21.9393C516.051 21.9985 516.273 22.2206 516.214 22.7239C516.103 23.3457 516.044 24.0193 516.044 24.8631H530.072V24.641C530.072 24.3005 530.072 23.9082 530.02 23.5751C530.02 23.2347 529.961 23.0126 529.961 22.7905C529.902 22.2872 530.131 22.0577 530.575 22.0059C532.148 22.0059 534.113 22.0059 535.79 22.1762C536.3 22.2354 536.521 22.5167 536.41 22.9608C536.3 23.6936 536.3 24.1969 536.241 24.7002C536.13 26.721 536.071 30.829 536.019 36.7876C536.019 40.8956 534.394 42.5759 530.072 42.8572C528.107 42.9682 526.652 42.9164 525.418 42.7979C524.465 42.6869 523.904 42.1836 523.682 41.2805C523.342 40.0444 522.951 38.6973 522.559 37.6832C522.338 37.1725 522.5 37.0096 523.01 37.0614C524.694 37.2317 526.379 37.4019 528.344 37.2909C529.518 37.2317 530.198 36.9504 530.139 35.6625V30.4367H516.051V43.8712C515.992 44.3227 515.77 44.5966 515.32 44.5966H515.312Z" fill="white" style="fill:white;fill-opacity:1;"/>
<path d="M572.342 45.3812C570.879 45.4404 568.523 45.4404 567.068 45.3812C566.565 45.3812 566.336 45.1517 566.336 44.7076V18.8971C566.336 17.661 566.336 16.3657 566.277 15.47C566.277 14.9593 566.499 14.7372 567.008 14.7372C568.523 14.7372 570.938 14.7372 572.505 14.7964C572.955 14.7964 573.236 15.0777 573.177 15.5292L573.125 16.4249H580.025C580.645 15.2998 581.207 14.1747 581.65 12.9978C573.288 12.9978 566.107 12.9386 558.417 13.3901C557.966 13.4419 557.686 13.2198 557.634 12.7165C557.523 11.3694 557.464 8.94893 557.464 7.66099C557.464 7.09844 557.745 6.9282 558.195 6.9282C563.359 7.3205 568.353 7.43153 573.627 7.43153C572.726 5.69208 571.884 4.28571 570.931 2.7091C570.709 2.3168 570.82 1.97631 571.271 1.81347C572.896 1.25092 575.031 0.629163 576.767 0.236861C577.218 0.125832 577.609 0.296077 577.89 0.688378C578.791 2.09474 579.626 3.38268 580.978 5.86232C581.199 6.31384 581.037 6.59511 580.638 6.75796L578.392 7.43153H590.625C592.421 5.35159 593.994 2.93856 595.117 0.518134C595.228 0.125832 595.508 -0.044412 595.959 0.0148034C597.702 0.296077 600.613 0.858623 602.578 1.42117C603.199 1.59141 603.139 1.87269 602.689 2.37602L602.238 2.82753C601.958 3.16802 601.677 3.56032 601.396 3.95263L599.04 7.3279C604.935 7.27609 610.542 7.15766 614.302 6.98741C614.752 6.98741 615.033 7.26869 615.033 7.72021C615.092 9.07476 615.092 11.0363 615.033 12.3834C614.974 12.946 614.752 13.168 614.302 13.1162C608.407 13.0052 597.917 13.0052 589.111 13.0052L588.83 13.6195L587.597 16.4323H600.332V15.4774C600.273 14.9667 600.502 14.7446 601.005 14.7446C602.519 14.7446 604.986 14.7446 606.56 14.8038C607.07 14.8038 607.291 15.0851 607.291 15.5366C607.239 16.4323 607.18 17.7276 607.18 18.8009V44.5522C607.18 45.0037 606.959 45.285 606.449 45.285C604.994 45.3442 602.519 45.3442 601.064 45.285C600.561 45.285 600.332 45.0037 600.332 44.5522V43.0866H573.066V44.715C573.066 45.1665 572.844 45.3886 572.335 45.3886L572.342 45.3812ZM573.073 21.1473V23.7306H600.34V21.1473H573.073ZM573.073 28.2902V30.9326H600.34V28.2902H573.073ZM600.347 35.544H573.081V38.2457H600.347V35.544Z" fill="white" style="fill:white;fill-opacity:1;"/>
<path d="M636.751 42.8127V35.2258H637.032C640.342 35.2258 643.37 32.2428 643.37 28.5344C643.37 24.8261 640.393 21.9023 636.751 21.9023L641.524 11.0511H634.122V3.39749H653.195L646.628 18.2976C649.376 20.9919 650.95 24.7076 650.95 28.527C650.95 36.4545 644.552 42.8053 637.032 42.8053H636.751V42.8127Z" fill="white" stroke="white" style="fill:white;fill-opacity:1;stroke:white;stroke-opacity:1;" stroke-width="0.31" stroke-miterlimit="10"/>
<path d="M654.88 22.6869C654.88 11.6136 663.855 2.61288 674.914 2.61288C685.973 2.61288 694.889 11.6062 694.889 22.6869C694.889 33.7676 685.965 42.7017 674.914 42.7017C663.863 42.7017 654.88 33.7602 654.88 22.6869ZM687.199 22.6869C687.199 15.8845 681.703 10.3775 674.914 10.3775C668.125 10.3775 662.57 15.8845 662.57 22.6869C662.57 29.4893 668.125 35.0037 674.914 35.0037C681.703 35.0037 687.199 29.4967 687.199 22.6869Z" fill="white" stroke="white" style="fill:white;fill-opacity:1;stroke:white;stroke-opacity:1;" stroke-width="0.31" stroke-miterlimit="10"/>
<path d="M460.181 23.4641H313.175V23.9526H460.181V23.4641Z" fill="white" style="fill:white;fill-opacity:1;"/>
<path d="M17.7738 71.5766C27.4659 71.5766 33.7229 74.6262 33.7229 81.3768V82.4648H27.8131V81.3768C27.8131 77.4981 23.6836 76.2398 17.7738 76.2398H16.4736C10.3422 76.2398 6.43436 77.4167 6.43436 79.852V80.2887C6.43436 82.9904 9.34493 83.4271 19.4285 84.2487C30.2952 85.0777 34.336 87.5574 34.336 92.4796V93.0422C34.336 98.3124 28.5961 101.443 18.0397 101.443H16.7396C5.78428 101.443 0.00744629 98.2679 0.00744629 91.5174V90.2072H5.91725V91.5174C5.91725 95.6107 9.8251 96.7876 16.7396 96.7876H18.0397C24.474 96.7876 28.3376 95.6551 28.3376 93.1754V92.6129C28.3376 90.1332 25.2497 89.2598 15.5133 88.564C5.51834 87.8238 0.42852 85.8623 0.42852 80.5921V80.111C0.42852 74.6262 6.6412 71.5766 16.4662 71.5766H17.7664H17.7738Z" fill="white" style="fill:white;fill-opacity:1;"/>
<path d="M60.1396 71.5766C70.4374 71.5766 78.6077 76.6691 78.6077 85.7735V87.2539C78.6077 96.4397 70.4374 101.451 60.1396 101.451H58.1376C47.6625 101.451 39.4036 96.4397 39.4036 87.2539V85.7735C39.4036 76.6691 47.6625 71.5766 58.1376 71.5766H60.1396ZM45.7566 85.7735V87.2539C45.7566 93.0052 50.7134 96.0918 58.145 96.0918H59.881C67.3126 96.0918 72.2251 92.9978 72.2251 87.2539V85.7735C72.2251 80.111 67.3126 76.9356 59.881 76.9356H58.145C50.7134 76.9356 45.7566 80.111 45.7566 85.7735Z" fill="white" style="fill:white;fill-opacity:1;"/>
<path d="M90.5973 71.9245V87.6906C90.5973 93.4789 94.0766 96.0918 101.028 96.0918H102.594C109.546 96.0918 113.025 93.4789 113.025 87.6906V71.9245H119.238V87.6906C119.238 97.7054 112.331 101.451 102.594 101.451H101.028C91.2917 101.451 84.3846 97.7054 84.3846 87.6906V71.9245H90.5973Z" fill="white" style="fill:white;fill-opacity:1;"/>
<path d="M160.17 71.9245V77.017H145.13V101.103H138.873V77.017H123.833V71.9245H160.17Z" fill="white" style="fill:white;fill-opacity:1;"/>
<path d="M171.421 71.9245V83.7232H192.933V71.9245H199.146V101.103H192.933V88.7787H171.421V101.103H165.208V71.9245H171.421Z" fill="white" style="fill:white;fill-opacity:1;"/>
<path d="M237.515 71.9245V76.8468H212.31V83.9896H235.129V88.6084H212.31V96.188H237.737V101.11H206.141V71.9319H237.522L237.515 71.9245Z" fill="white" style="fill:white;fill-opacity:1;"/>
<path d="M267.492 71.9245C273.749 71.9245 277.665 75.1443 277.665 80.3257V81.6284C277.665 85.6773 275.234 88.5936 271.319 89.6003L279.098 101.095H271.969L264.449 90.037H250.236V101.095H244.023V71.9171H267.492V71.9245ZM250.243 85.248H265.845C269.236 85.248 271.275 84.2487 271.275 81.3694V80.6292C271.275 77.8016 269.228 76.6247 265.845 76.6247H250.243V85.248Z" fill="white" style="fill:white;fill-opacity:1;"/>
<path d="M292.218 71.9245L312.038 93.3975H313.168V71.9245H319.078V101.103H310.996L291.176 79.6299H290.046V101.103H284.136V71.9245H292.218Z" fill="white" style="fill:white;fill-opacity:1;"/>
<path d="M372.739 71.9245V77.017H357.698V101.103H351.441V77.017H336.401V71.9245H372.731H372.739Z" fill="white" style="fill:white;fill-opacity:1;"/>
<path d="M394.723 71.9245L410.414 101.103H404.157L400.204 93.7454H379.867L375.959 101.103H369.917L385.474 71.9245H394.73H394.723ZM382.423 88.9489H397.634L390.941 76.5359H389.027L382.423 88.9489Z" fill="white" style="fill:white;fill-opacity:1;"/>
<path d="M437.392 71.9245V77.017H429.177V96.003H437.392V101.095H414.794V96.003H422.964V77.017H414.794V71.9245H437.392Z" fill="white" style="fill:white;fill-opacity:1;"/>
<path d="M448.295 71.9245L455.904 95.7439H457.862L464.732 71.9245H475.03L482.114 95.7439H484.027L491.459 71.9245H497.11L487.98 101.103H477.637L470.509 77.2391H468.595L461.681 101.103H451.383L442.083 71.9245H448.295Z" fill="white" style="fill:white;fill-opacity:1;"/>
<path d="M521.858 71.9245L537.548 101.103H531.291L527.339 93.7454H507.002L503.094 101.103H497.051L512.609 71.9245H521.865H521.858ZM509.558 88.9489H524.768L518.075 76.5359H516.162L509.558 88.9489Z" fill="white" style="fill:white;fill-opacity:1;"/>
<path d="M550.668 71.9245L570.488 93.3975H571.618V71.9245H577.528V101.103H569.446L549.626 79.6299H548.496V101.103H542.586V71.9245H550.668Z" fill="white" style="fill:white;fill-opacity:1;"/>
<path d="M17.7738 130.126C27.4659 130.126 33.7229 133.175 33.7229 139.926V141.014H27.8131V139.926C27.8131 136.047 23.6836 134.789 17.7738 134.789H16.4736C10.3422 134.789 6.43436 135.966 6.43436 138.401V138.838C6.43436 141.54 9.34493 141.976 19.4285 142.798C30.2952 143.627 34.336 146.107 34.336 151.029V151.591C34.336 156.862 28.5961 160 18.0397 160H16.7396C5.78428 160 0.00744629 156.817 0.00744629 150.074V148.764H5.91725V150.074C5.91725 154.167 9.8251 155.344 16.7396 155.344H18.0397C24.474 155.344 28.3376 154.212 28.3376 151.732V151.169C28.3376 148.69 25.2497 147.816 15.5133 147.121C5.51834 146.38 0.42852 144.419 0.42852 139.149V138.668C0.42852 133.183 6.6412 130.133 16.4662 130.133H17.7664L17.7738 130.126Z" fill="white" style="fill:white;fill-opacity:1;"/>
<path d="M58.8838 130.126C69.4919 130.126 76.8792 134.041 76.8348 142.147H70.4449C70.4449 138.098 66.4927 135.485 58.8838 135.485H57.4507C49.9305 135.485 45.7567 138.312 45.7567 144.064V145.936C45.7567 151.813 49.9305 154.648 57.4507 154.648H58.8838C66.4927 154.648 70.5778 151.902 70.5778 147.987H76.9678C76.9235 155.736 69.4476 160.007 58.8838 160.007H57.4507C47.1528 160.007 39.411 155.655 39.411 145.944V144.071C39.411 134.315 47.1455 130.133 57.4507 130.133H58.8838V130.126Z" fill="white" style="fill:white;fill-opacity:1;"/>
<path d="M104.507 130.474V135.566H96.2928V154.552H104.507V159.645H81.9099V154.552H90.0802V135.566H81.9099V130.474H104.507Z" fill="white" style="fill:white;fill-opacity:1;"/>
<path d="M142.182 130.474V135.396H116.977V142.539H139.796V147.158H116.977V154.737H142.404V159.659H110.809V130.481H142.19L142.182 130.474Z" fill="white" style="fill:white;fill-opacity:1;"/>
<path d="M156.772 130.474L176.592 151.947H177.723V130.474H183.632V159.652H175.551L155.731 138.179H154.6V159.652H148.691V130.474H156.772Z" fill="white" style="fill:white;fill-opacity:1;"/>
<path d="M209.355 130.126C219.963 130.126 227.35 134.041 227.306 142.147H220.916C220.916 138.098 216.964 135.485 209.355 135.485H207.922C200.401 135.485 196.228 138.312 196.228 144.064V145.936C196.228 151.813 200.401 154.648 207.922 154.648H209.355C216.964 154.648 221.049 151.902 221.049 147.987H227.439C227.394 155.736 219.918 160.007 209.355 160.007H207.922C197.624 160.007 189.882 155.655 189.882 145.944V144.071C189.882 134.315 197.616 130.133 207.922 130.133H209.355V130.126Z" fill="white" style="fill:white;fill-opacity:1;"/>
<path d="M265.062 130.474V135.396H239.857V142.539H262.676V147.158H239.857V154.737H265.284V159.659H233.688V130.481H265.069L265.062 130.474Z" fill="white" style="fill:white;fill-opacity:1;"/>
<path d="M305.773 130.474C313.729 130.474 317.164 133.782 317.164 139.267V140.533C317.164 146.24 313.729 149.46 305.773 149.46H290.083V159.652H283.87V130.474H305.773ZM290.083 144.367H305.034C308.684 144.367 310.774 143.368 310.774 140.363V139.445C310.774 136.617 308.691 135.566 305.034 135.566H290.083V144.36V144.367Z" fill="white" style="fill:white;fill-opacity:1;"/>
<path d="M341.402 130.474L357.092 159.652H350.835L346.883 152.295H326.546L322.638 159.652H316.595L332.153 130.474H341.409H341.402ZM329.102 147.498H344.312L337.62 135.085H335.706L329.102 147.498Z" fill="white" style="fill:white;fill-opacity:1;"/>
<path d="M385.592 130.474C391.849 130.474 395.765 133.694 395.765 138.875V140.178C395.765 144.226 393.327 147.143 389.419 148.15L397.198 159.645H390.069L382.549 148.586H368.336V159.645H362.123V130.466H385.592V130.474ZM368.336 143.797H383.938C387.328 143.797 389.367 142.798 389.367 139.919V139.178C389.367 136.351 387.321 135.174 383.938 135.174H368.336V143.797Z" fill="white" style="fill:white;fill-opacity:1;"/>
<path d="M408.404 130.474V142.272H409.882L427.788 130.474H435.959L415.703 143.842V145.278L436.35 159.652H427.877L410.229 147.328H408.404V159.652H402.236V130.474H408.404Z" fill="white" style="fill:white;fill-opacity:1;"/>
</g>
<defs>
<clipPath id="clip0_2005_136">
<rect width="695" height="160" fill="white" style="fill:white;fill-opacity:1;"/>
</clipPath>
</defs>
</svg>
