<svg width="59" height="58" viewBox="0 0 59 58" fill="none" xmlns="http://www.w3.org/2000/svg">
<g clip-path="url(#clip0_2005_1054)">
<path fill-rule="evenodd" clip-rule="evenodd" d="M0.236 32.961C0.236 32.961 0.286571 37.4747 3.73386 43.2446C7.198 48.9977 9.82771 50.9991 14.0841 51.7193C18.3827 52.4227 21.9059 52.4562 23.6674 48.8888C25.3616 45.2963 18.6946 40.0121 13.1149 37.4161C7.50143 34.7866 3.94457 33.4216 0.244429 32.961" fill="white" style="fill:white;fill-opacity:1;"/>
<path fill-rule="evenodd" clip-rule="evenodd" d="M0.227573 32.1152C0.227573 32.1152 8.86686 30.0049 17.2701 32.3246C25.7493 34.594 29.8456 39.9703 29.8456 39.9703C29.8456 39.9703 35.6023 32.7098 46.2054 30.6246C55.283 29.134 58.705 30.8842 58.705 30.8842C58.705 30.8842 59.4383 45.8322 42.2356 55.0439C33.8239 59.5241 23.8191 58.0419 19.5711 56.2414C13.9746 53.9469 12.6766 52.7493 12.6766 52.7493C12.6766 52.7493 21.5603 57.4222 32.214 52.5484C42.8003 47.6494 40.7437 42.851 47.1073 38.0023C51.4986 34.6359 51.6924 34.1083 51.6924 34.1083C51.6924 34.1083 50.5461 34.9122 48.498 34.795C47.0736 34.6945 45.1013 34.8368 41.7383 38.3038C37.878 42.2899 36.0574 45.3046 29.4916 43.3869C24.9907 42.0554 24.1057 37.6087 13.1317 33.9659C13.1317 33.9659 8.82472 32.6093 4.661 32.5255C0.48043 32.3748 -0.151713 32.827 0.227573 32.1152Z" fill="white" style="fill:white;fill-opacity:1;"/>
<path fill-rule="evenodd" clip-rule="evenodd" d="M11.8169 19.1435L21.9986 19.0347L22.0997 28.8409L11.918 28.9414L11.8169 19.1435Z" fill="white" style="fill:white;fill-opacity:1;"/>
<path fill-rule="evenodd" clip-rule="evenodd" d="M21.9311 18.9844L29.1629 18.9007L29.087 11.7156L21.8553 11.7993L21.9311 18.9844Z" fill="white" style="fill:white;fill-opacity:1;"/>
<path fill-rule="evenodd" clip-rule="evenodd" d="M51.1024 3.45856L56.876 3.40832L56.9266 9.07768L51.153 9.12792L51.1024 3.45856Z" fill="white" style="fill:white;fill-opacity:1;"/>
<path fill-rule="evenodd" clip-rule="evenodd" d="M2.08447e-05 29.6616L7.29916 29.5778C7.16431 17.4184 16.992 7.37772 29.2303 7.24373C41.4686 7.10975 51.507 16.9579 51.6419 29.1173L59 29.0419C58.823 12.8712 45.43 -0.167468 29.1629 1.6364e-05C12.8873 0.18425 -0.176979 13.4909 2.08447e-05 29.6616Z" fill="white" style="fill:white;fill-opacity:1;"/>
</g>
<defs>
<clipPath id="clip0_2005_1054">
<rect width="59" height="58" fill="white" style="fill:white;fill-opacity:1;"/>
</clipPath>
</defs>
</svg>
