<svg width="15" height="12" viewBox="0 0 15 12" fill="none" xmlns="http://www.w3.org/2000/svg">
<path d="M8.2 10.04C8.92 9.66667 9.54667 9.21333 10.08 8.68C10.6133 8.12 11.0267 7.53333 11.32 6.92C11.6133 6.28 11.76 5.68 11.76 5.12C11.6533 5.2 11.4933 5.28 11.28 5.36C11.0933 5.41333 10.88 5.44 10.64 5.44C9.89333 5.44 9.29333 5.2 8.84 4.72C8.38667 4.21333 8.16 3.6 8.16 2.88C8.16 2.24 8.38667 1.65333 8.84 1.12C9.29333 0.559998 9.97333 0.279998 10.88 0.279998C11.76 0.279998 12.5067 0.639998 13.12 1.36C13.7333 2.05333 14.04 2.96 14.04 4.08C14.04 5.25333 13.8 6.33333 13.32 7.32C12.84 8.30666 12.2133 9.16 11.44 9.88C10.6933 10.6 9.89333 11.16 9.04 11.56L8.2 10.04ZM0.52 10.04C1.24 9.66667 1.86667 9.21333 2.4 8.68C2.93333 8.12 3.34667 7.53333 3.64 6.92C3.93333 6.28 4.08 5.68 4.08 5.12C3.97333 5.2 3.81333 5.28 3.6 5.36C3.41333 5.41333 3.21333 5.44 3 5.44C2.25333 5.44 1.64 5.2 1.16 4.72C0.706667 4.21333 0.48 3.6 0.48 2.88C0.48 2.24 0.706667 1.65333 1.16 1.12C1.61333 0.559998 2.29333 0.279998 3.2 0.279998C4.08 0.279998 4.82667 0.639998 5.44 1.36C6.05333 2.05333 6.36 2.96 6.36 4.08C6.36 5.25333 6.12 6.33333 5.64 7.32C5.16 8.30666 4.53333 9.16 3.76 9.88C3.01333 10.6 2.21333 11.16 1.36 11.56L0.52 10.04Z" fill="#8F6C51"/>
</svg>
