<svg width="15" height="12" viewBox="0 0 15 12" fill="none" xmlns="http://www.w3.org/2000/svg">
<path d="M6.8 1.64C6.08 1.98666 5.45333 2.44 4.92 3C4.38667 3.56 3.97333 4.14667 3.68 4.76C3.38667 5.37333 3.24 5.97333 3.24 6.56C3.34667 6.48 3.49334 6.41333 3.68 6.36C3.89334 6.28 4.12 6.24 4.36 6.24C5.10667 6.24 5.70667 6.49333 6.16 7C6.61333 7.48 6.84 8.08 6.84 8.8C6.84 9.41333 6.61333 10 6.16 10.56C5.70667 11.12 5.02667 11.4 4.12 11.4C3.26667 11.4 2.52 11.0533 1.88 10.36C1.26667 9.64 0.960001 8.72 0.960001 7.6C0.960001 6.42666 1.2 5.34666 1.68 4.36C2.16 3.37333 2.78667 2.52 3.56 1.8C4.33333 1.05333 5.13333 0.493331 5.96 0.119998L6.8 1.64ZM14.48 1.64C13.76 1.98666 13.1333 2.44 12.6 3C12.0667 3.56 11.6533 4.14667 11.36 4.76C11.0667 5.37333 10.92 5.97333 10.92 6.56C11.0267 6.48 11.1733 6.41333 11.36 6.36C11.5733 6.28 11.7867 6.24 12 6.24C12.7733 6.24 13.3867 6.49333 13.84 7C14.2933 7.48 14.52 8.08 14.52 8.8C14.52 9.41333 14.2933 10 13.84 10.56C13.3867 11.12 12.7067 11.4 11.8 11.4C10.92 11.4 10.1733 11.0533 9.56 10.36C8.94667 9.64 8.64 8.72 8.64 7.6C8.64 6.42666 8.88 5.34666 9.36 4.36C9.84 3.37333 10.4533 2.52 11.2 1.8C11.9733 1.05333 12.7867 0.493331 13.64 0.119998L14.48 1.64Z" fill="#8F6C51"/>
</svg>
