<?xml version="1.0" encoding="UTF-8"?>
<svg id="_圖層_2" data-name="圖層 2" xmlns="http://www.w3.org/2000/svg" viewBox="0 0 886.15 231.19">
  <defs>
    <style>
      .cls-1 {
        fill: #fff;
      }
    </style>
  </defs>
  <g id="_圖層_1-2" data-name="圖層 1">
    <g>
      <path class="cls-1" d="M124.21,187.55h30.74c.61,0,.92.24.92.72,0,.52-.31.78-.92.78h-12.26v38.58c0,1.43-.76,2.15-2.27,2.15h-3.9v-40.72h-12.33c-.57,0-.85-.26-.85-.78,0-.48.28-.72.85-.72Z"/>
      <path class="cls-1" d="M177.27,187.55h5.53c1.51,0,2.5.72,2.98,2.15l14.03,37.21c.71,1.91.07,2.86-1.91,2.86h-3.61l-5.17-13.86h-17.85l-4.89,13.4c-.14.48-.45.72-.92.72-.71,0-.95-.33-.71-.98l14.66-40.46h-2.12c-.47,0-.71-.17-.71-.52s.24-.52.71-.52ZM171.74,214.42h16.79l-8.5-22.7-8.29,22.7Z"/>
      <path class="cls-1" d="M213.04,187.55h11.69c.47,0,.71.17.71.52s-.24.52-.71.52h-2.76v40.14h2.98c.47,0,.71.17.71.52s-.24.52-.71.52h-12.11c-.47,0-.71-.17-.71-.52s.24-.52.71-.52h2.98v-40.14h-2.76c-.47,0-.71-.17-.71-.52s.24-.52.71-.52Z"/>
      <path class="cls-1" d="M238.89,187.55h13.46c5.43,0,9.56,1.01,12.4,3.03,2.83,2.02,4.25,5.17,4.25,9.46s-1.35,7.32-4.04,9.47c-2.69,2.15-6.82,3.22-12.4,3.22h-5.88v14.96c0,1.39-.76,2.08-2.27,2.08h-2.9v-41.18h-2.62c-.47,0-.71-.17-.71-.52s.24-.52.71-.52ZM252.14,211.23c3.21,0,5.71-.98,7.51-2.93,1.79-1.95,2.69-4.7,2.69-8.26s-.91-6.44-2.73-8.26c-1.82-1.82-4.31-2.73-7.47-2.73h-5.45v22.18h5.45Z"/>
      <path class="cls-1" d="M281.26,187.55h28.41c.57,0,.85.24.85.72,0,.52-.28.78-.85.78h-19.69v18.22h17.64c.61,0,.92.24.92.72,0,.52-.31.78-.92.78h-17.64v19.52h19.77c.57,0,.85.24.85.71,0,.52-.28.78-.85.78h-26v-41.18h-2.48c-.47,0-.71-.17-.71-.52s.24-.52.71-.52Z"/>
      <path class="cls-1" d="M324.4,187.55h11.69c.47,0,.71.17.71.52s-.24.52-.71.52h-2.76v40.14h2.98c.47,0,.71.17.71.52s-.24.52-.71.52h-12.11c-.47,0-.71-.17-.71-.52s.24-.52.71-.52h2.98v-40.14h-2.76c-.47,0-.71-.17-.71-.52s.24-.52.71-.52Z"/>
      <path class="cls-1" d="M375.19,187.55h28.48c.57,0,.85.24.85.72,0,.52-.28.78-.85.78h-19.77v16.91h17.64c.61,0,.92.24.92.72,0,.52-.31.78-.92.78h-17.64v20.17c0,1.43-.8,2.15-2.41,2.15h-3.83v-41.18h-2.48c-.47,0-.71-.17-.71-.52s.24-.52.71-.52Z"/>
      <path class="cls-1" d="M414.86,187.55h6.45c1.56,0,2.34.82,2.34,2.47v38.25h20.76c.57,0,.85.26.85.78,0,.48-.28.72-.85.72h-26.92v-41.18h-2.62c-.47,0-.71-.17-.71-.52s.24-.52.71-.52Z"/>
      <path class="cls-1" d="M455.31,208.63c0-6.42,1.58-11.64,4.75-15.68,3.16-4.03,7.34-6.05,12.54-6.05,5.48,0,9.76,2.02,12.86,6.05,3.09,4.03,4.64,9.26,4.64,15.68s-1.52,11.54-4.57,15.61c-3.05,4.08-7.36,6.11-12.93,6.11-5.2,0-9.38-2.01-12.54-6.02-3.16-4.01-4.75-9.25-4.75-15.71ZM460.98,208.63c0,5.98.99,10.84,2.98,14.57,1.98,3.73,4.75,5.59,8.29,5.59s6.35-1.8,8.29-5.4c1.94-3.6,2.9-8.52,2.9-14.77s-.97-11.17-2.9-14.77c-1.94-3.6-4.7-5.4-8.29-5.4s-6.25,1.84-8.25,5.53c-2.01,3.69-3.01,8.57-3.01,14.64Z"/>
      <path class="cls-1" d="M503.2,187.55h13.53c5.48,0,9.65,1.02,12.5,3.06,2.86,2.04,4.29,5.2,4.29,9.5,0,4.03-1.37,7.16-4.11,9.37-2.17,1.73-5.31,2.78-9.42,3.12,2.22,3.3,4.82,6.31,7.79,9.04,3.21,2.91,7.11,5.59,11.69,8.07.57.26.71.63.43,1.11-.24.43-.64.5-1.21.2-4.63-2.56-8.6-5.31-11.9-8.26-3.26-2.9-6.14-6.25-8.64-10.02h-7.23v14.96c0,1.39-.76,2.08-2.27,2.08h-2.9v-41.18h-2.55c-.47,0-.71-.17-.71-.52s.24-.52.71-.52ZM516.52,211.23c3.21,0,5.74-.98,7.58-2.93,1.84-1.95,2.76-4.68,2.76-8.2,0-3.69-.91-6.45-2.73-8.29-1.82-1.84-4.36-2.76-7.62-2.76h-5.6v22.18h5.6Z"/>
      <path class="cls-1" d="M560.08,187.55h5.53c1.51,0,2.5.72,2.98,2.15l14.03,37.21c.71,1.91.07,2.86-1.91,2.86h-3.61l-5.17-13.86h-17.85l-4.89,13.4c-.14.48-.45.72-.92.72-.71,0-.95-.33-.71-.98l14.66-40.46h-2.12c-.47,0-.71-.17-.71-.52s.24-.52.71-.52ZM554.56,214.42h16.79l-8.5-22.7-8.29,22.7Z"/>
      <path class="cls-1" d="M594.01,187.55h6.45c1.56,0,2.34.82,2.34,2.47v38.25h20.76c.57,0,.85.26.85.78,0,.48-.28.72-.85.72h-26.92v-41.18h-2.62c-.47,0-.71-.17-.71-.52s.24-.52.71-.52Z"/>
      <path class="cls-1" d="M658.62,187.55h13.46c5.43,0,9.56,1.01,12.4,3.03,2.83,2.02,4.25,5.17,4.25,9.46s-1.35,7.32-4.04,9.47c-2.69,2.15-6.82,3.22-12.4,3.22h-5.88v14.96c0,1.39-.76,2.08-2.27,2.08h-2.9v-41.18h-2.62c-.47,0-.71-.17-.71-.52s.24-.52.71-.52ZM671.87,211.23c3.21,0,5.71-.98,7.51-2.93,1.79-1.95,2.69-4.7,2.69-8.26s-.91-6.44-2.73-8.26c-1.82-1.82-4.31-2.73-7.47-2.73h-5.45v22.18h5.45Z"/>
      <path class="cls-1" d="M702.82,187.55h11.69c.47,0,.71.17.71.52s-.24.52-.71.52h-2.76v40.14h2.98c.47,0,.71.17.71.52s-.24.52-.71.52h-12.11c-.47,0-.71-.17-.71-.52s.24-.52.71-.52h2.98v-40.14h-2.76c-.47,0-.71-.17-.71-.52s.24-.52.71-.52Z"/>
      <path class="cls-1" d="M729.46,208.63c0-6.07,1.74-11.21,5.21-15.42,3.47-4.21,7.78-6.31,12.93-6.31,3.26,0,6.08.73,8.47,2.18,2.38,1.45,3.93,3.16,4.64,5.11.43,1.17.37,2.14-.18,2.89-.54.76-1.55,1.14-3.01,1.14h-2.62c-.24-3.03-1.02-5.41-2.34-7.12-1.32-1.71-3.16-2.57-5.52-2.57-3.5,0-6.35,1.97-8.57,5.92-2.22,3.95-3.33,8.67-3.33,14.18,0,5.9,1.15,10.72,3.44,14.47,2.29,3.75,5.54,5.63,9.74,5.63,3.4,0,6.26-1.08,8.57-3.25,2.31-2.17,3.97-5.31,4.96-9.43.14-.65.45-.98.92-.98.66,0,.9.39.71,1.17-1.23,4.99-3.24,8.59-6.02,10.8-2.79,2.21-6.09,3.32-9.92,3.32-5.15,0-9.45-2.03-12.89-6.08-3.45-4.05-5.17-9.27-5.17-15.65Z"/>
      <path class="cls-1" d="M775.5,187.55h7.93c1.04,0,1.82.22,2.34.65.52.43.99,1,1.42,1.69l20.05,32.07v-33.89c0-.52.26-.78.78-.78.57,0,.85.26.85.78v38.58c0,2.08-.97,3.12-2.9,3.12h-1.06l-25.15-40.4v40.01c0,.48-.28.72-.85.72-.52,0-.78-.24-.78-.72v-40.79h-2.62c-.47,0-.71-.17-.71-.52s.24-.52.71-.52Z"/>
      <path class="cls-1" d="M825.45,187.55h11.69c.47,0,.71.17.71.52s-.24.52-.71.52h-2.76v40.14h2.98c.47,0,.71.17.71.52s-.24.52-.71.52h-12.11c-.47,0-.71-.17-.71-.52s.24-.52.71-.52h2.98v-40.14h-2.76c-.47,0-.71-.17-.71-.52s.24-.52.71-.52Z"/>
      <path class="cls-1" d="M852.08,208.63c0-6.07,1.74-11.21,5.21-15.42,3.47-4.21,7.78-6.31,12.93-6.31,3.26,0,6.08.73,8.47,2.18,2.38,1.45,3.93,3.16,4.64,5.11.43,1.17.37,2.14-.18,2.89-.54.76-1.55,1.14-3.01,1.14h-2.62c-.24-3.03-1.02-5.41-2.34-7.12-1.32-1.71-3.16-2.57-5.52-2.57-3.5,0-6.35,1.97-8.57,5.92-2.22,3.95-3.33,8.67-3.33,14.18,0,5.9,1.15,10.72,3.44,14.47,2.29,3.75,5.54,5.63,9.74,5.63,3.4,0,6.26-1.08,8.57-3.25,2.31-2.17,3.97-5.31,4.96-9.43.14-.65.45-.98.92-.98.66,0,.9.39.71,1.17-1.23,4.99-3.24,8.59-6.02,10.8-2.79,2.21-6.09,3.32-9.92,3.32-5.15,0-9.45-2.03-12.89-6.08-3.45-4.05-5.17-9.27-5.17-15.65Z"/>
      <g>
        <path class="cls-1" d="M0,33.19c0-8.68,1.94-15.67,5.81-20.96,3.87-5.29,9.24-7.94,16.1-7.94,6.21,0,11.2,2.33,14.95,6.99,3.75,4.66,5.63,10.75,5.63,18.26,0,9.1-2.87,19.9-8.59,32.39-5.57,11.97-12.83,26.42-21.79,43.35h31.96c.89,0,1.33.63,1.33,1.9,0,1.17-.44,1.75-1.33,1.75H.6v-2.86c9.76-18.53,17.37-33.98,22.82-46.37,5.45-12.38,8.17-22.55,8.17-30.49,0-6.46-.93-11.56-2.78-15.32-1.86-3.76-4.48-5.64-7.87-5.64s-5.83,1.72-7.81,5.16c-1.98,3.44-2.97,6.96-2.97,10.56,0,3.28-.55,5.64-1.64,7.07-1.09,1.43-2.48,2.14-4.18,2.14H0Z"/>
        <path class="cls-1" d="M53.44,57.33c0-16.52,2.12-29.48,6.36-38.91,4.24-9.42,10.51-14.13,18.83-14.13s14.42,4.39,18.83,13.18c4.4,8.79,6.6,22.07,6.6,39.86s-2.2,31.07-6.6,39.86c-4.4,8.79-10.67,13.18-18.83,13.18s-14.59-4.71-18.83-14.13c-4.24-9.42-6.36-22.39-6.36-38.91ZM63.13,57.33c0,16.09,1.23,28.29,3.69,36.6,2.46,8.31,6.11,12.47,10.96,12.47,5.16,0,8.94-3.97,11.32-11.91,2.38-7.94,3.57-20.33,3.57-37.16s-1.19-29.22-3.57-37.16c-2.38-7.94-6.15-11.91-11.32-11.91-4.84,0-8.49,4.15-10.96,12.46-2.46,8.31-3.69,20.51-3.69,36.61Z"/>
        <path class="cls-1" d="M1.3,152.44c0-8.68,1.94-15.67,5.81-20.96,3.87-5.29,9.24-7.94,16.1-7.94,6.21,0,11.2,2.33,14.95,6.99,3.75,4.66,5.63,10.75,5.63,18.26,0,9.1-2.87,19.9-8.59,32.39-5.57,11.97-12.83,26.42-21.79,43.35h31.96c.89,0,1.33.63,1.33,1.9,0,1.17-.44,1.75-1.33,1.75H1.9v-2.86c9.76-18.53,17.37-33.98,22.82-46.37,5.45-12.38,8.17-22.55,8.17-30.49,0-6.46-.93-11.56-2.78-15.32-1.86-3.76-4.48-5.64-7.87-5.64s-5.83,1.72-7.81,5.16c-1.98,3.44-2.97,6.96-2.97,10.56,0,3.28-.55,5.64-1.64,7.07-1.09,1.43-2.48,2.14-4.18,2.14H1.3Z"/>
        <path class="cls-1" d="M53.44,182.77c0-20.64,2.22-36.21,6.66-46.69,4.44-10.48,11.06-14.66,19.85-12.54,1.61.42,2.26,1.33,1.94,2.7-.24.85-.97,1.17-2.18.95-6.78-.42-11.46,5.19-14.04,16.83-2.02,9.32-3.19,19.37-3.51,30.17,1.13-2.54,2.5-4.82,4.12-6.83,3.31-4.02,7.26-6.03,11.86-6.03,6.94,0,12.47,3.13,16.59,9.37,4.12,6.25,6.17,14.56,6.17,24.93s-2.16,18.4-6.48,24.69c-4.32,6.3-9.99,9.45-17.01,9.45-8.64,0-14.79-4.05-18.46-12.15-3.67-8.1-5.51-19.72-5.51-34.86ZM63.37,195.63c0,9.11,1.19,16.41,3.57,21.92,2.38,5.51,5.63,8.26,9.75,8.26,3.55,0,6.68-2.56,9.38-7.7,2.7-5.13,4.05-12.52,4.05-22.15,0-8.79-1.05-16.09-3.15-21.92-2.1-5.82-5.37-8.73-9.8-8.73s-7.65,2.91-10.11,8.73c-2.46,5.82-3.69,13.02-3.69,21.6Z"/>
        <path class="cls-1" d="M97.31,140.27c-1.15-.9-2.48-1.07-3.86-1.28,1.79-.6,4.02-1.63,4.29-3.76.27-2.12-1.31-3.23-3.26-2.64-1.99.59-2.84,2.31-3.63,4.07-.2-1.53-.43-3.08-1.5-4.27-1.61-1.8-4.16-1.22-4.53,1.26-.32,2.13,1.38,3.73,2.76,5.09l-2.48-.25c-2.53-.26-5.14,2.84-2.49,4.62,1.73,1.16,3.9,0,5.48-.87l-.69,1.18c-1.23,2.72.68,7.24,3.84,4.86,1.56-1.18,1.31-4.2.63-5.8l2.16,1.65c3.13,2.22,6.79-1.11,3.28-3.85ZM91,140.67c-.5.28-1.14.1-1.42-.4-.28-.5-.1-1.14.4-1.42s1.14-.1,1.42.4c.28.5.1,1.14-.4,1.42Z"/>
      </g>
      <path class="cls-1" d="M499.11,96.32c-.49-.49-.44-1.42.15-2.79,9.84-23.92,16.49-50.08,19.97-78.46.23-1.87-1.25-3.53-3.13-3.53h0c-.89,0-1.33-.49-1.33-1.49s.44-1.49,1.33-1.49h14.33c4.33,0,6.01,2.6,5.02,7.81-2.42,12.19-5.46,23.37-9.13,33.52-.12.34-.18.68-.18,1.04v113.05c0,5.33-2.12,7.99-6.35,7.99h-5.57c-1.74,0-3.14-1.41-3.14-3.14v-77.07c0-3.03-3.84-4.29-5.67-1.87-1.42,1.89-2.88,3.72-4.38,5.49-.89.99-1.53,1.3-1.92.93ZM604.45,73.27c1.57,0,2.36.99,2.36,2.97,0,2.11-.79,3.16-2.36,3.16h-22.56c-1.74,0-3.14,1.41-3.14,3.14v30.15c0,1.74,1.41,3.14,3.14,3.14h25.96c1.67,0,2.51,1.05,2.51,3.16,0,1.98-.84,2.97-2.51,2.97h-25.96c-1.74,0-3.14,1.41-3.14,3.14v38.13c0,5.82-2.27,8.74-6.8,8.74h-7.05c-1.74,0-3.14-1.41-3.14-3.14v-43.72c0-1.74-1.41-3.14-3.14-3.14h-25.37c-1.58,0-2.36-.99-2.36-2.97,0-2.11.79-3.16,2.36-3.16h25.37c1.74,0,3.14-1.41,3.14-3.14v-30.15c0-1.74-1.41-3.14-3.14-3.14h-21.68c-1.58,0-2.36-1.05-2.36-3.16,0-1.98.79-2.97,2.36-2.97h21.68c1.74,0,3.14-1.41,3.14-3.14V14.69c0-1.74-1.41-3.14-3.14-3.14h-.84c-.79,0-1.18-.49-1.18-1.49s.39-1.49,1.18-1.49h14.18c4.53,0,6.8,2.85,6.8,8.55v53c0,1.74,1.41,3.14,3.14,3.14h22.56Z"/>
      <path class="cls-1" d="M640.91,17.24h45.95c4.04,0,6.06,2.67,6.06,8.01v57.38c0,5.21-2.02,7.82-6.06,7.82h-11.34c-1.9,0-3.44,1.58-3.44,3.53v18.3c0,1.95,1.54,3.53,3.44,3.53h15.18c1.57,0,2.36,1.08,2.36,3.24,0,2.03-.79,3.05-2.36,3.05h-15.18c-1.9,0-3.44,1.58-3.44,3.53v23.92c0,2.19,1.93,3.87,4.04,3.48,5.23-.97,10.44-2.06,15.61-3.28,2.46-.76,3.84-.06,4.14,2.1.3,1.91-.54,3.12-2.51,3.62-16.94,4.32-34.92,7.12-53.92,8.39-2.56.25-3.94-.64-4.14-2.67-.1-2.03.94-3.11,3.1-3.24,5.43-.42,10.72-.94,15.88-1.54,1.73-.2,3.03-1.72,3.03-3.51v-27.26c0-1.95-1.54-3.53-3.44-3.53h-12.81c-1.68,0-2.51-1.02-2.51-3.05,0-2.16.84-3.24,2.51-3.24h12.81c1.9,0,3.44-1.58,3.44-3.53v-18.3c0-1.95-1.54-3.53-3.44-3.53h-11c-1.9,0-3.44-1.58-3.44-3.53V18.95c0-1.14.49-1.72,1.48-1.72ZM653.95,50.41h.66c1.9,0,3.44-1.58,3.44-3.53v-19.83c0-1.95-1.54-3.53-3.44-3.53h-.66c-1.9,0-3.44,1.58-3.44,3.53v19.83c0,1.95,1.54,3.53,3.44,3.53ZM653.95,84.53h.66c1.9,0,3.44-1.58,3.44-3.53v-20.78c0-1.95-1.54-3.53-3.44-3.53h-.66c-1.9,0-3.44,1.58-3.44,3.53v20.78c0,1.95,1.54,3.53,3.44,3.53ZM674.64,50.41h.81c1.9,0,3.44-1.58,3.44-3.53v-19.83c0-1.95-1.54-3.53-3.44-3.53h-.81c-1.9,0-3.44,1.58-3.44,3.53v19.83c0,1.95,1.54,3.53,3.44,3.53ZM678.88,81v-20.78c0-1.95-1.54-3.53-3.44-3.53h-.81c-1.9,0-3.44,1.58-3.44,3.53v20.78c0,1.95,1.54,3.53,3.44,3.53h.81c1.9,0,3.44-1.58,3.44-3.53ZM705.92,41.45c3.59,2.78,7.1,5.79,10.53,9.04,1.83,1.73,4.8.99,5.59-1.43,2.03-6.25,3.86-13.27,5.48-21.06.46-2.2-1.17-4.28-3.36-4.28h-26.07c-1.68,0-2.51-1.02-2.51-3.05.1-2.16.93-3.24,2.51-3.24h43.14c4.92,0,6.25,2.8,3.99,8.39-5.53,13.03-11.84,22.87-18.94,29.54-1.41,1.32-1.52,3.52-.25,4.98,2.51,2.9,4.97,5.94,7.37,9.13.66.85,1.08,1.64,1.27,2.39.4,1.56,1.9,2.56,3.48,2.56h6.04c4.23,0,5.71,2.61,4.43,7.82-3.05,11.82-8.62,23-16.69,33.55-.79,1.14-1.43,1.52-1.92,1.14-.39-.38-.44-1.27-.15-2.67,2.02-9.43,3.38-19.36,4.07-29.81.13-2.03-1.46-3.74-3.44-3.74h0c-1.9,0-3.44,1.58-3.44,3.53v66.62c0,14.11-4.68,21.16-14.03,21.16h-17.58c-1.58,0-2.36-1.02-2.36-3.05s.79-3.05,2.36-3.05h5.47c6.7,0,10.05-6.03,10.05-18.11v-63.57c0-1.95-1.54-3.53-3.44-3.53h-11.34c-1.58,0-2.36-1.02-2.36-3.05,0-2.16.79-3.24,2.36-3.24h34.42l-.15-.19c-8.18-10.67-17.28-19.89-27.33-27.64-1.77-1.4-2.27-2.98-1.48-4.77.89-1.65,2.31-1.78,4.28-.38Z"/>
      <path class="cls-1" d="M555.48,55.42c-2.6-3.11-4.77-5.23-8.36-7.13-3.95-2.1-14.02-4.81-12.55-10.8,1.08-4.41,6.24-3.19,9.15-1.59,5.4,2.98,9.35,9.05,11.32,14.77.25.72,1.63,4.56.44,4.75Z"/>
      <g>
        <path class="cls-1" d="M365.55,121.97c-.39-.62-.15-1.55.74-2.79,11.72-16.17,19.96-34.75,24.72-55.75.37-1.63-.89-3.18-2.56-3.18h0c-.79,0-1.18-.49-1.18-1.49s.39-1.49,1.18-1.49h14.04c4.23,0,5.61,2.48,4.14,7.44-2.58,7.71-5.5,14.72-8.73,21.02-.19.36-.28.76-.28,1.17v77.09c0,5.33-2.12,7.99-6.35,7.99h-5.66c-1.45,0-2.62-1.17-2.62-2.62v-54.73c0-2.31-2.79-3.5-4.44-1.87-3.26,3.23-6.71,6.11-10.34,8.65-1.38.99-2.27,1.18-2.66.56Z"/>
        <path class="cls-1" d="M471.47,26.98c1.57,0,2.36,1.05,2.36,3.16,0,1.98-.79,2.97-2.36,2.97h-18.81c-1.45,0-2.62,1.17-2.62,2.62v6.86c0,5.83-2.36,8.74-7.09,8.74h-7.87c-1.45,0-2.62-1.17-2.62-2.62v-12.99c0-1.45-1.17-2.62-2.62-2.62h-19c-1.45,0-2.62,1.17-2.62,2.62v7.24c0,5.21-2.07,7.81-6.2,7.81h-5.66c-1.45,0-2.62-1.17-2.62-2.62v-12.43c0-1.45-1.17-2.62-2.62-2.62h-21.76c-1.68,0-2.51-.99-2.51-2.97,0-2.11.84-3.16,2.51-3.16h21.76c1.45,0,2.62-1.17,2.62-2.62v-8.34c0-1.45-1.17-2.62-2.62-2.62h-.78c-.79,0-1.18-.56-1.18-1.67,0-.99.39-1.49,1.18-1.49h11.67c4.14,0,6.2,2.6,6.2,7.81v6.31c0,1.45,1.17,2.62,2.62,2.62h19c1.45,0,2.62-1.17,2.62-2.62v-8.34c0-1.45-1.17-2.62-2.62-2.62h-1.52c-.79,0-1.18-.56-1.18-1.67,0-.99.39-1.49,1.18-1.49h14.63c4.73,0,7.09,2.91,7.09,8.74v5.38c0,1.45,1.17,2.62,2.62,2.62h18.81Z"/>
        <path class="cls-1" d="M446.26,102.3c4.84-2.56,8.26-4.85,11.77-9.05,3.88-4.63,10.28-17.18,17.79-13.56,5.53,2.67,2.47,9.15-.46,12.54-5.45,6.3-14.58,9.83-22.7,10.83-1.02.13-6.48.88-6.4-.75Z"/>
        <path class="cls-1" d="M466.89,131.64h-8.13c-.89,0-1.33.62-1.33,1.86v16.36c0,8.55-2.76,12.83-8.27,12.83h-3.99c-5.52,0-8.27-4.28-8.27-12.83v-83.47c0-5.58-2.22-8.37-6.65-8.37h-14.33c-.79,0-1.18.5-1.18,1.49,0,1.12.39,1.67,1.18,1.67h1.52c1.45,0,2.62,1.17,2.62,2.62v89.03c0,10.66,4.23,15.99,12.71,15.99h28.07c8.47,0,12.71-5.33,12.71-15.99v-12.64c0-5.7-2.22-8.55-6.65-8.55Z"/>
      </g>
      <path class="cls-1" d="M602.32,36.91c1.67-3.19,3.43-6.28,7.2-7.17,3.69-.87,6.52,1.36,5.78,5.28-.74,3.92-5,5.6-8.4,6.52,2.55.55,5,1.01,7.04,2.81,6.24,5.49-.95,11.28-6.52,6.81l-3.84-3.31c1.1,3.06,1.23,8.71-1.81,10.73-6.15,4.08-9.19-4.55-6.61-9.47l1.41-2.13c-3.04,1.47-7.21,3.37-10.29,1.02-4.73-3.6.46-9.09,5.14-8.32l4.59.74c-2.4-2.69-5.4-5.86-4.57-9.78.97-4.57,5.77-5.36,8.56-1.84,1.85,2.33,2.11,5.25,2.32,8.11ZM603.07,41.79c-.47-.97-1.63-1.37-2.6-.91s-1.38,1.63-.91,2.6c.47.97,1.63,1.37,2.6.91.97-.47,1.38-1.63.91-2.6Z"/>
      <g>
        <path class="cls-1" d="M206.12,97.67h-70.49c-.94,0-1.41.51-1.41,1.52v69.49c0,1.82,1.53,3.3,3.41,3.3h5.38c4.4,0,6.59-2.66,6.59-7.98v-1.83c0-1.82,1.53-3.3,3.41-3.3h38.55c1.88,0,3.41,1.48,3.41,3.3v6.51c0,1.82,1.53,3.3,3.41,3.3h7.73c4.92,0,7.38-2.98,7.38-8.93v-56.64c0-5.83-2.46-8.74-7.38-8.74ZM149.6,146.82v-37.11c0-1.82,1.53-3.3,3.41-3.3h38.55c1.88,0,3.41,1.48,3.41,3.3v37.11c0,1.82-1.53,3.3-3.41,3.3h-38.55c-1.88,0-3.41-1.48-3.41-3.3Z"/>
        <path class="cls-1" d="M219.31,69.54c-2.41-4.94-5.71-7.41-9.89-7.41s-7.59,2.47-9.89,7.41c-.15.3-.29.6-.42.9-.52,1.2-1.77,1.95-3.11,1.95h-50.22c-3.16,0-4.64-3.82-2.23-5.8,16.43-13.51,28.72-29.62,36.83-48.36,2.2-5.32.84-7.98-4.08-7.98h-19.31c-.84,0-1.26.51-1.26,1.52s.42,1.52,1.26,1.52h0c2.37,0,4.02,2.28,3.21,4.44-7.56,20.31-18.93,38.67-34.14,55.05-1.99,2.03-2.88,3.87-2.67,5.51.42,1.78,1.57,2.73,3.45,2.85h93.57c.73,0,1.1-.44,1.1-1.33,0-3.93-.73-7.35-2.2-10.26Z"/>
      </g>
      <g>
        <path class="cls-1" d="M273.4,10.24h-12.56c-.84,0-1.26.51-1.26,1.53s.42,1.53,1.26,1.53h0c1.99,0,3.61,1.57,3.61,3.51v35.18c0,1.94-1.62,3.51-3.61,3.51h-22.29c-2.41,0-3.61,1.46-3.61,4.39s1.2,4.39,3.61,4.39h22.29c1.99,0,3.61,1.57,3.61,3.51v56.01c0,1.2-.62,2.33-1.67,2.97-7.58,4.65-15.81,8.9-24.7,12.74-3.56,1.4-4.97,3.5-4.24,6.3.84,2.67,3.09,3.25,6.75,1.72,6.52-2.64,12.66-5.59,18.41-8.83,2.42-1.36,5.45.3,5.45,3.02v26.74c0,1.94,1.62,3.51,3.61,3.51h5.34c4.4,0,6.59-2.67,6.59-8.02V18.26c0-5.35-2.2-8.02-6.59-8.02Z"/>
        <path class="cls-1" d="M341.38,128.44c-2.41,0-3.61,1.46-3.61,4.39v11.84c0,8.78-2.41,13.18-7.22,13.18h-8.16c-4.92,0-7.38-5.22-7.38-15.66v-66.62c0-1.43.78-2.75,2.03-3.51,8.66-5.23,16.52-11.45,23.56-18.66,2.93-2.29,3.71-4.65,2.35-7.07-1.31-2.2-3.39-2.35-6.24-.44-.24.16-.46.35-.65.55-4.45,4.62-9.21,8.77-14.29,12.47-2.79,2.03-6.77.07-6.77-3.32V19.03c0-5.85-2.41-8.78-7.22-8.78h-15.07c-.84,0-1.26.51-1.26,1.53s.42,1.53,1.26,1.53h0c2.34,0,4.24,1.85,4.24,4.12v130.5c0,12.47,4.34,18.71,13.03,18.71h24.49c7.01,0,10.52-5.35,10.52-16.04v-17.76c0-2.93-1.2-4.39-3.61-4.39Z"/>
      </g>
      <g>
        <path class="cls-1" d="M829.78,138.91c17.04,6.65,33.73,15.52,50.08,26.61,1.87,1.17,2.46,2.67,1.77,4.5-.89,1.96-2.36,2.22-4.43.78-16.35-10.96-33-19.76-49.94-26.41-1.97-.78-2.66-2.15-2.07-4.11.49-1.96,2.02-2.41,4.58-1.37Z"/>
        <path class="cls-1" d="M837.76,9.78h36.2c4.43,0,5.96,2.74,4.58,8.22-2.76,10.17-7.24,18.78-13.44,25.83l-.59.78c5.51,5.48,10.88,11.42,16.1,17.8,1.57,2.09,1.87,3.91.89,5.48-1.18,1.44-2.51,1.31-3.99-.39-5.08-6.24-10.38-12.13-15.89-17.68-.63-.63-1.6-.66-2.28-.1-4.95,4.07-10.61,7.19-16.99,9.37-.98.52-1.72.39-2.22-.39-.3-.78.05-1.57,1.03-2.35,4.33-3.94,7.96-8.38,10.88-13.3.46-.78.29-1.81-.39-2.39-4.26-3.66-8.65-7.11-13.16-10.33-1.77-1.43-2.27-3.06-1.48-4.89.79-1.82,2.22-2.02,4.28-.59,4.24,3.09,8.44,6.39,12.6,9.88.88.74,2.21.43,2.67-.65,2.1-4.96,3.75-10.17,4.96-15.61.25-1.14-.59-2.23-1.7-2.23h-22.06c-1.58,0-2.36-1.04-2.36-3.13,0-2.22.79-3.33,2.36-3.33Z"/>
        <path class="cls-1" d="M865.54,150.05c1.97-6.03,5.92-12.42,11.32-15.55,2.9-1.69,8.07-2.97,9.15,1.67,1.47,6.3-8.6,9.16-12.55,11.36-3.58,2-5.76,4.23-8.36,7.51-1.19-.2.19-4.24.44-5Z"/>
        <path class="cls-1" d="M883.11,89.22c-16.68-6.9-31.59-16.47-44.71-28.69-.83-.78-.92-2.13-.21-3.03.2-.26.4-.51.6-.77,3.45-4.56,2.81-6.85-1.92-6.85h-13.86c-1.76,0-2.69-2.16-1.56-3.58,3.12-3.94,5.72-8.18,7.82-12.72l.11-.27c1.7-4.86.45-7.29-3.74-7.29h-6.5c-1.14,0-2.06-.97-2.06-2.17v-5.63c0-1.2.92-2.17,2.06-2.17h9.61c1.58,0,2.36-1.11,2.36-3.33,0-2.09-.79-3.13-2.36-3.13h-11.67v-1.57c0-5.35-2.02-8.02-6.06-8.02h-11.08c-.79,0-1.18.52-1.18,1.56s.39,1.57,1.18,1.57h1.19c1.14,0,2.06.97,2.06,2.17v18.55c0,1.2-.92,2.17-2.06,2.17h-2.07c.2-.39.44-.98.74-1.76,1.38-4.43.24-6.65-3.4-6.65h-10.34c-.79,0-1.18.52-1.18,1.57s.39,1.57,1.18,1.57h0c1.3,0,2.29,1.26,2.03,2.59-2.05,10.27-5.48,19.32-10.3,27.14-.79,1.17-.99,2.09-.59,2.74.49.65,1.28.52,2.36-.39,3.07-2.09,5.87-4.65,8.38-7.67.77-.92,2.13-.96,2.97-.11,2.4,2.47,4.63,4.97,6.69,7.5.74.9.64,2.28-.23,3.04-5.28,4.65-11.85,8.81-19.73,12.49-1.08.39-1.58,1.05-1.48,1.96.1,1.05.79,1.44,2.07,1.17,13-2.87,23.73-7.56,32.21-14.09,2.66-2.22,5.12-4.43,7.39-6.65-.1.39-.15.72-.15.98,0,.94.32,1.45.95,1.55,1.54.23,2.09,2.35,1.11,3.62-11.47,14.89-26.24,26.93-44.31,36.12-1.18.52-1.63,1.24-1.33,2.15.2.91.93,1.17,2.22.78,5.26-1.2,10.24-2.66,14.95-4.41,1.35-.5,2.77.53,2.77,2.04v75.93c0,2.08.79,3,2.36,2.74,10.54-2.48,21.62-5.15,33.24-8.02,2.36-.65,3.4-2.02,3.1-4.11-.2-1.96-1.58-2.74-4.14-2.35-5.78,1.48-11.64,2.92-17.57,4.31-1.29.3-2.52-.73-2.52-2.12v-24.86c0-1.2.92-2.17,2.06-2.17h51.12c4.63,0,6.94-3.06,6.94-9.2v-29.74c0-.37,0-.74-.03-1.09-.08-1.59,1.51-2.7,2.9-2.04,3.3,1.57,6.68,3.07,10.13,4.5,2.46,1.05,3.94.46,4.43-1.76.39-1.96-.59-3.33-2.95-4.11ZM812.37,35.59c-2.27,4.97-5.28,9.67-9.03,14.11-.1.13-.25.33-.44.59-2.62-3.58-5.58-6.96-8.89-10.13-.74-.71-.9-1.86-.37-2.76.74-1.25,1.47-2.52,2.17-3.82.37-.67,1.05-1.1,1.79-1.1h12.91c1.52,0,2.53,1.67,1.87,3.11ZM851.05,102.89c0,1.2-.92,2.17-2.06,2.17h-32.13c-.18,0-.33.15-.33.35v5.57c0,.19.15.35.33.35h32.13c1.14,0,2.06.97,2.06,2.17v10.53c0,1.2-.92,2.17-2.06,2.17h-38.42c-1.14,0-2.06-.97-2.06-2.17v-30.87c0-1.2.92-2.17,2.06-2.17h38.42c1.14,0,2.06.97,2.06,2.17v9.74ZM852.91,84.52h-11.9c-.97,0-1.83-.71-2.01-1.72-.24-1.32-.6-2.57-1.09-3.76-1.58-3.39-3.89-5.09-6.94-5.09s-5.52,1.7-7.09,5.09c-.48,1.19-.85,2.44-1.09,3.76-.18,1.01-1.04,1.72-2.01,1.72h-6.89c-2.09,0-2.84-2.88-1.06-4.03,6.95-4.45,13.23-9.6,18.83-15.44.78-.81,2.01-.85,2.83-.08,6.12,5.76,12.62,10.93,19.51,15.53,1.76,1.17,1,4.02-1.08,4.02Z"/>
      </g>
    </g>
  </g>
</svg>