<svg width="23" height="23" viewBox="0 0 23 23" fill="none" xmlns="http://www.w3.org/2000/svg">
<path d="M17.9785 13.0265H1.47665C1.28169 13.0308 1.08791 12.9944 0.907045 12.9195C0.726186 12.8446 0.562023 12.7328 0.424516 12.5908C0.286246 12.4495 0.177351 12.2809 0.104436 12.0951C0.0315207 11.9093 -0.00389419 11.7103 0.000339363 11.51C0.000339363 11.0808 0.141732 10.7205 0.424516 10.4293C0.562023 10.2873 0.726186 10.1754 0.907045 10.1005C1.08791 10.0256 1.28169 9.98922 1.47665 9.99357H17.9785L10.7432 2.56035C10.6029 2.42472 10.4925 2.25984 10.4193 2.07678C10.3462 1.89372 10.312 1.6967 10.319 1.49895C10.3308 1.09395 10.4844 0.740155 10.7797 0.437547C11.0751 0.158451 11.4199 0.0128347 11.8141 0.000700074C12.2069 -0.0114346 12.5514 0.134181 12.8475 0.437547L22.5935 10.4486C22.7412 10.6003 22.8457 10.7645 22.907 10.9412C22.969 11.1179 23 11.3075 23 11.51C23 11.7125 22.969 11.9021 22.907 12.0788C22.8457 12.2563 22.7412 12.4205 22.5935 12.5714L12.8475 22.5825C12.5772 22.8608 12.2387 23 11.8319 23C11.4258 23 11.0751 22.8608 10.7797 22.5825C10.6381 22.4429 10.5257 22.275 10.4495 22.0891C10.3733 21.9033 10.3349 21.7034 10.3367 21.5018C10.3367 21.0846 10.4844 20.7244 10.7797 20.421L17.9785 13.0265Z" fill="white"/>
</svg>
