<svg width="145" height="133" viewBox="0 0 145 133" fill="none" xmlns="http://www.w3.org/2000/svg">
<g style="mix-blend-mode:multiply" opacity="0.15">
<path d="M145 62.2164H8.32617V132.341H145V62.2164Z" fill="black"/>
<path d="M68.5218 11.0443L8.32617 62.2227H145L84.8618 11.0443C80.1887 7.06857 73.1949 7.06857 68.5218 11.0443Z" fill="black"/>
<path d="M122.948 24.1013H30.3784V90.0282H122.948V24.1013Z" fill="black"/>
<path d="M76.6631 97.3437L8.32617 62.2164V132.348H145V62.2164L76.6631 97.3437Z" fill="black"/>
<path d="M68.4964 81.3113L8.35815 132.49H144.975L84.8363 81.3113C80.1632 77.3355 73.1695 77.3355 68.4964 81.3113Z" fill="black"/>
<path d="M90.8098 44.6343H44.0278V49.925H90.8098V44.6343Z" fill="black"/>
<path d="M70.3897 57.1111H44.0278V62.4018H70.3897V57.1111Z" fill="black"/>
</g>
<path d="M136.674 54.1603H0V124.285H136.674V54.1603Z" fill="#51BA97"/>
<path d="M60.1957 2.9818L0 54.1602H136.674L76.5356 2.9818C71.8625 -0.993935 64.8688 -0.993935 60.1957 2.9818Z" fill="#51BA97"/>
<path d="M114.622 16.0387H22.0522V81.9656H114.622V16.0387Z" fill="white"/>
<path d="M68.3369 89.2814L0 54.1603V124.285H136.674V54.1603L68.3369 89.2814Z" fill="#F3981C"/>
<path d="M60.1703 73.2487L0.0319824 124.427H136.648L76.5102 73.2487C71.8371 69.2729 64.8434 69.2729 60.1703 73.2487Z" fill="#51BA97"/>
<path d="M82.4837 36.578H35.7017V41.8687H82.4837V36.578Z" fill="#51BA97"/>
<path d="M62.0635 49.0485H35.7017V54.3392H62.0635V49.0485Z" fill="#51BA97"/>
</svg>
