<svg width="45" height="40" viewBox="0 0 45 40" fill="none" xmlns="http://www.w3.org/2000/svg">
<path d="M44.9915 28.0952C44.9915 30.5952 44.4201 32.7126 43.2772 34.4558C42.1343 36.199 40.0872 37.5595 37.1447 38.5374C34.1936 39.5068 30.1081 40 24.8711 40H0C0.298522 32.8741 0.443534 26.2075 0.443534 20C0.443534 13.7925 0.298522 7.12585 0 0H12.99V0.0510184H24.7603C29.3319 0.0510184 32.9313 0.425131 35.5668 1.18193C38.2023 1.93874 40.0616 3.02721 41.1533 4.46429C42.2365 5.89286 42.7824 7.71257 42.7824 9.91495C42.7824 12.1173 41.9977 14.1497 40.4369 15.8929C38.8675 17.6361 36.1894 19.0391 32.3939 20.1105C40.7952 20.1105 45 22.7721 45 28.1037L44.9915 28.0952ZM12.99 10.0765V15.204H23.6003C25.8861 15.204 27.4811 15 28.3852 14.6003C29.2893 14.2007 29.7413 13.4609 29.7413 12.3979C29.7413 11.5561 29.2723 10.9524 28.334 10.6037C27.3958 10.2551 25.8179 10.0765 23.6088 10.0765H12.9986H12.99ZM23.6003 29.915C25.5194 29.915 26.9779 29.8299 27.9929 29.6683C29.0078 29.5068 29.7328 29.2092 30.1763 28.784C30.6198 28.3588 30.8416 27.7806 30.8416 27.0493C30.8416 26.0969 30.3128 25.4081 29.2637 24.983C28.2146 24.5578 26.3211 24.3452 23.6003 24.3452H12.99V29.9065H23.6003V29.915Z" fill="#CBF98A"/>
</svg>
