<svg width="76" height="76" viewBox="0 0 76 76" fill="none" xmlns="http://www.w3.org/2000/svg">
<g clip-path="url(#clip0_2052_1024)">
<path d="M32.8916 51.4056C32.8916 48.4032 35.0201 46.0805 37.9777 46.0805C40.9352 46.0805 43.1086 48.4032 43.1086 51.4056C43.1086 54.408 40.98 56.7755 37.9777 56.7755C34.9753 56.7755 32.8916 54.4005 32.8916 51.4056ZM33.9596 26.6772L33.6683 18.9846H42.3319L42.0406 26.6772L40.7784 43.0334H35.2143L33.9521 26.6772H33.9596Z" fill="white"/>
<path d="M57.4706 3.09204H18.537C10.007 3.09204 3.09204 10.007 3.09204 18.537V57.4706C3.09204 66.0006 10.007 72.9155 18.537 72.9155H57.4706C66.0006 72.9155 72.9155 66.0006 72.9155 57.4706V18.537C72.9155 10.007 66.0006 3.09204 57.4706 3.09204Z" stroke="#F3981C" stroke-width="8.27" stroke-miterlimit="10"/>
</g>
<defs>
<clipPath id="clip0_2052_1024">
<rect width="76" height="76" fill="white"/>
</clipPath>
</defs>
</svg>
