<svg width="20" height="19" viewBox="0 0 20 19" fill="none" xmlns="http://www.w3.org/2000/svg">
<path d="M15.6335 10.761H1.28404C1.11451 10.7646 0.946004 10.7345 0.788735 10.6727C0.631466 10.6108 0.488716 10.5184 0.369144 10.4011C0.24891 10.2844 0.154218 10.1451 0.0908136 9.99161C0.0274093 9.83815 -0.00338625 9.67371 0.000295098 9.50828C0.000295098 9.15367 0.123245 8.85607 0.369144 8.61549C0.488716 8.49816 0.631466 8.40576 0.788735 8.34389C0.946004 8.28202 1.11451 8.25197 1.28404 8.25556H15.6335L9.3419 2.11507C9.21992 2.00303 9.1239 1.86683 9.06028 1.7156C8.99666 1.56438 8.96692 1.40162 8.97305 1.23826C8.98333 0.903702 9.11687 0.611432 9.37368 0.361452C9.6305 0.130894 9.93033 0.0106026 10.2732 0.000578322C10.6147 -0.00944594 10.9142 0.110845 11.1717 0.361452L19.6466 8.63147C19.775 8.75677 19.8658 8.89241 19.9191 9.03839C19.973 9.18437 20 9.341 20 9.50828C20 9.67556 19.973 9.83219 19.9191 9.97816C19.8658 10.1248 19.775 10.2604 19.6466 10.3851L11.1717 18.6551C10.9367 18.885 10.6423 19 10.2886 19C9.93546 19 9.6305 18.885 9.37368 18.6551C9.25049 18.5398 9.15277 18.4011 9.08652 18.2476C9.02027 18.094 8.9869 17.9289 8.98846 17.7623C8.98846 17.4177 9.11687 17.1201 9.37368 16.8695L15.6335 10.761Z" fill="#727171"/>
</svg>
