<svg width="18" height="19" viewBox="0 0 18 19" fill="none" xmlns="http://www.w3.org/2000/svg">
<path d="M9 18.4922C8.92132 18.4922 8.84545 18.4775 8.77239 18.4482C8.69934 18.4189 8.63471 18.3633 8.57851 18.2812C8.55603 18.2344 8.37058 17.9941 8.02215 17.5605C7.68496 17.1152 7.28877 16.5879 6.83357 15.9785C6.37836 15.3691 5.92597 14.7305 5.47639 14.0625C5.0268 13.3945 4.67837 12.8086 4.4311 12.3047L4.31309 12.041C3.85227 11.0918 3.45326 10.2246 3.11607 9.43945C2.77888 8.6543 2.61029 7.83984 2.61029 6.99609C2.61029 6.35156 2.73393 5.6543 2.9812 4.9043C3.22847 4.16602 3.61623 3.48047 4.14449 2.84766C4.67276 2.21484 5.33589 1.69336 6.1339 1.2832C6.94315 0.861328 7.89852 0.650391 9 0.650391C10.1015 0.650391 11.0568 0.861328 11.8661 1.2832C12.6641 1.69336 13.3272 2.21777 13.8555 2.85645C14.3838 3.49512 14.7715 4.18945 15.0188 4.93945C15.2661 5.67773 15.3897 6.38086 15.3897 7.04883C15.3897 7.91602 15.2239 8.7627 14.8924 9.58887C14.5608 10.415 14.1196 11.3379 13.5689 12.3574C13.3104 12.8496 12.9563 13.4297 12.5067 14.0977C12.0459 14.7656 11.5907 15.4043 11.1411 16.0137C10.6916 16.623 10.2982 17.1445 9.96098 17.5781C9.62379 18.0117 9.44396 18.2461 9.42148 18.2812C9.36528 18.3633 9.30066 18.4189 9.2276 18.4482C9.15454 18.4775 9.07867 18.4922 9 18.4922ZM9 1.74023C7.98843 1.74023 7.13984 1.93359 6.45423 2.32031C5.76861 2.71875 5.21788 3.19336 4.80201 3.74414C4.38615 4.29492 4.0883 4.875 3.90846 5.48438C3.72863 6.09375 3.63871 6.61523 3.63871 7.04883C3.63871 7.75195 3.79045 8.45801 4.09392 9.16699C4.39739 9.87598 4.76829 10.6875 5.20664 11.6016L5.30779 11.8828C5.48763 12.2461 5.74052 12.668 6.06646 13.1484C6.38117 13.6406 6.71555 14.1328 7.0696 14.625C7.42364 15.1172 7.76926 15.5859 8.10645 16.0312C8.44364 16.4883 8.72463 16.8574 8.94942 17.1387C9.17421 16.8574 9.44958 16.4883 9.77553 16.0312C10.1127 15.5859 10.4555 15.1172 10.804 14.625C11.1524 14.1328 11.4896 13.6406 11.8155 13.1484C12.1302 12.668 12.3887 12.2461 12.591 11.8828C13.1081 10.8984 13.5239 10.04 13.8386 9.30762C14.1533 8.5752 14.3107 7.83984 14.3107 7.10156C14.3219 6.65625 14.2433 6.12891 14.0747 5.51953C13.8948 4.89844 13.5998 4.30957 13.1896 3.75293C12.7793 3.19629 12.2314 2.71875 11.5458 2.32031C10.8601 1.93359 10.0116 1.74023 9 1.74023ZM9 10.582C8.14579 10.582 7.4124 10.2627 6.79985 9.62402C6.18729 8.98535 5.88101 8.2207 5.88101 7.33008C5.88101 6.42773 6.18729 5.66016 6.79985 5.02734C7.4124 4.39453 8.14579 4.07812 9 4.07812C9.85421 4.07812 10.5876 4.39453 11.2001 5.02734C11.8127 5.66016 12.119 6.42773 12.119 7.33008C12.119 8.2207 11.8127 8.98535 11.2001 9.62402C10.5876 10.2627 9.85421 10.582 9 10.582ZM9 5.15039C8.42678 5.15039 7.93786 5.36426 7.53323 5.79199C7.1286 6.21973 6.92629 6.73242 6.92629 7.33008C6.92629 7.91602 7.1286 8.42285 7.53323 8.85059C7.93786 9.27832 8.42678 9.49219 9 9.49219C9.57322 9.49219 10.0621 9.27832 10.4668 8.85059C10.8714 8.42285 11.0737 7.91602 11.0737 7.33008C11.0737 6.73242 10.8714 6.21973 10.4668 5.79199C10.0621 5.36426 9.57322 5.15039 9 5.15039Z" fill="#353A3D"/>
</svg>
