<svg width="40" height="40" viewBox="0 0 40 40" fill="none" xmlns="http://www.w3.org/2000/svg">
<path d="M9.5 19C8.94772 19 8.5 19.4477 8.5 20C8.5 20.5523 8.94772 21 9.5 21L9.5 20L9.5 19ZM31.2071 20.7071C31.5976 20.3166 31.5976 19.6834 31.2071 19.2929L24.8431 12.9289C24.4526 12.5384 23.8195 12.5384 23.4289 12.9289C23.0384 13.3195 23.0384 13.9526 23.4289 14.3431L29.0858 20L23.4289 25.6569C23.0384 26.0474 23.0384 26.6805 23.4289 27.0711C23.8195 27.4616 24.4526 27.4616 24.8431 27.0711L31.2071 20.7071ZM9.5 20L9.5 21L30.5 21L30.5 20L30.5 19L9.5 19L9.5 20Z" fill="#727171"/>
</svg>
