<svg width="30" height="30" viewBox="0 0 30 30" fill="none" xmlns="http://www.w3.org/2000/svg">
<path fill-rule="evenodd" clip-rule="evenodd" d="M6.25 1.25C4.92392 1.25 3.65215 1.77678 2.71447 2.71447C1.77678 3.65215 1.25 4.92392 1.25 6.25V23.75C1.25 25.0761 1.77678 26.3479 2.71447 27.2855C3.65215 28.2232 4.92392 28.75 6.25 28.75H23.75C25.0761 28.75 26.3479 28.2232 27.2855 27.2855C28.2232 26.3479 28.75 25.0761 28.75 23.75V6.25C28.75 4.92392 28.2232 3.65215 27.2855 2.71447C26.3479 1.77678 25.0761 1.25 23.75 1.25H6.25ZM15 6.05C9.91125 6.05 5.625 9.405 5.625 13.7213C5.625 17.67 9.22125 20.8187 13.7175 21.3212C13.795 21.3276 13.8691 21.3558 13.9313 21.4025C13.9487 21.4149 13.9634 21.4309 13.9742 21.4495C13.9849 21.468 13.9916 21.4887 13.9937 21.51C14.0369 22.141 13.9536 22.7742 13.7487 23.3725C13.7242 23.4371 13.7157 23.5067 13.7241 23.5752C13.7324 23.6438 13.7574 23.7093 13.7968 23.7661C13.8362 23.8229 13.8888 23.8692 13.9502 23.901C14.0115 23.9328 14.0797 23.9492 14.1488 23.9487C14.2675 23.9487 14.4037 23.9125 14.5162 23.8787C14.6675 23.8313 14.8164 23.7766 14.9625 23.715C15.3 23.5763 15.73 23.375 16.2175 23.1188C17.1925 22.6088 18.4125 21.8713 19.6087 20.9637C20.8025 20.0575 21.9862 18.97 22.875 17.7575C23.7625 16.545 24.375 15.1775 24.375 13.7213C24.375 9.405 20.0888 6.05 15 6.05ZM8.395 16.065V11.59H9.67375V14.7863H11.5912V16.065H8.395ZM12.23 11.59V16.065H13.5087V11.59H12.23ZM13.935 16.065V11.59H15.3837L16.4913 13.6688V11.5912H17.77V16.0662H16.32L15.2137 13.9875V16.065H13.935ZM20.9663 11.59H18.1963V16.065H20.9663V14.7875H19.4738V14.4688H20.9663V13.1875H19.4738V12.8675H20.9663V11.59Z" fill="white"/>
</svg>
