<svg width="40" height="40" viewBox="0 0 40 40" fill="none" xmlns="http://www.w3.org/2000/svg">
<path d="M15.402 34.162C16.3355 34.4121 17.2951 33.8581 17.5453 32.9245C17.7954 31.991 17.2414 31.0314 16.3078 30.7812C14.1657 30.2072 12.2419 29.011 10.7797 27.3437C9.31744 25.6763 8.38242 23.6127 8.09294 21.414C7.80348 19.2153 8.17244 16.98 9.15327 14.9911C10.1341 13.0021 11.6829 11.3486 13.6035 10.2398C15.5241 9.13091 17.7304 8.61638 19.9433 8.76141C22.1563 8.90646 24.2765 9.70457 26.0359 11.0546C27.7954 12.4047 29.1149 14.2462 29.8278 16.3462C30.5406 18.4462 30.6147 20.7104 30.0408 22.8525C29.7907 23.786 30.3447 24.7456 31.2782 24.9958C32.2117 25.246 33.1713 24.6919 33.4215 23.7584C34.1746 20.9476 34.0775 17.9764 33.1422 15.2209C32.2068 12.4654 30.4752 10.049 28.1666 8.27757C25.8581 6.5062 23.076 5.45943 20.1724 5.26908C17.2688 5.07877 14.3738 5.75363 11.8538 7.20852C9.33376 8.66347 7.30146 10.833 6.01441 13.4428C4.72738 16.0527 4.24324 18.9858 4.62307 21.8709C5.00291 24.7559 6.22974 27.4636 8.14838 29.6514C10.067 31.8391 12.5912 33.4088 15.402 34.162Z" fill="white"/>
<path d="M29.6657 28.1735C29.9031 28.6772 30.7718 28.9099 31.2293 28.5924L36.6332 24.8422C37.0907 24.5247 36.7939 23.8951 36.099 23.7089L27.8901 21.5094C27.1952 21.3232 26.6234 21.72 26.8608 22.2237L29.6657 28.1735Z" fill="white"/>
</svg>
