<svg width="40" height="40" viewBox="0 0 40 40" fill="none" xmlns="http://www.w3.org/2000/svg">
<path d="M30.5 21C31.0523 21 31.5 20.5523 31.5 20C31.5 19.4477 31.0523 19 30.5 19L30.5 20L30.5 21ZM8.79289 19.2929C8.40237 19.6834 8.40237 20.3166 8.79289 20.7071L15.1569 27.0711C15.5474 27.4616 16.1805 27.4616 16.5711 27.0711C16.9616 26.6805 16.9616 26.0474 16.5711 25.6569L10.9142 20L16.5711 14.3431C16.9616 13.9526 16.9616 13.3195 16.5711 12.9289C16.1805 12.5384 15.5474 12.5384 15.1569 12.9289L8.79289 19.2929ZM30.5 20L30.5 19L9.5 19L9.5 20L9.5 21L30.5 21L30.5 20Z" fill="#727171"/>
</svg>
