<svg width="40" height="40" viewBox="0 0 40 40" fill="none" xmlns="http://www.w3.org/2000/svg">
<path d="M32.2354 17.2003C32.9112 17.8761 32.9111 18.9716 32.2354 19.6474L21.2227 30.6601C20.5469 31.3359 19.4514 31.3359 18.7756 30.6601L7.76289 19.6474C7.08718 18.9716 7.08712 17.8761 7.76289 17.2003C8.43867 16.5247 9.53416 16.5247 10.2099 17.2003L18.2687 25.2591L18.2687 5.28518C18.2687 4.32946 19.0434 3.55469 19.9991 3.55469C20.9549 3.55469 21.7296 4.32946 21.7296 5.28518L21.7296 25.2591L29.7884 17.2003C30.4641 16.5247 31.5596 16.5247 32.2354 17.2003Z" fill="#0095B7"/>
<path d="M31.9209 32.9844C32.8766 32.9844 33.6514 33.7591 33.6514 34.7149C33.6514 35.6706 32.8766 36.4454 31.9209 36.4454H8.07815C7.12242 36.4454 6.34766 35.6706 6.34766 34.7149C6.34766 33.7591 7.12242 32.9844 8.07815 32.9844H31.9209Z" fill="#0095B7"/>
</svg>
