<svg width="268" height="279" viewBox="0 0 268 279" fill="none" xmlns="http://www.w3.org/2000/svg">
<path d="M187.974 65.9095C185.711 71.6099 188.49 78.075 194.197 80.3392C199.894 82.6035 206.356 79.8228 208.619 74.1125C210.882 68.4121 208.103 61.9471 202.396 59.6828C196.698 57.4185 190.237 60.1992 187.974 65.9095Z" fill="#00B9EF"/>
<path d="M2.37024 179.53L21.2383 176.332C34.1016 145.219 57.8629 122.675 88.1451 112.853C116.561 103.637 148.918 105.653 181.691 118.683L204.728 127.839L195.577 150.889C187.528 171.158 194.902 186.015 257.571 210.932L265.451 214.011C267.367 214.735 268.35 216.851 267.655 218.777L247.139 276.169C246.147 278.939 242.117 278.592 241.631 275.682L239.268 257.022C215.229 247.468 187.974 235.769 168.679 217.903C150.347 200.921 141.801 180.801 143.31 158.754C113.316 152.716 81.7135 159.807 67.0537 195.281L64.0165 203.355C63.292 205.271 61.1779 206.254 59.2524 205.559L1.89384 185.032C-0.875329 184.039 -0.518027 180.007 2.38017 179.52L2.37024 179.53Z" fill="#00B9EF"/>
<path d="M150.883 111.533C150.883 111.533 162.526 74.9965 191.508 86.5164C223.944 99.4168 202.247 134.126 202.247 134.126L150.883 111.533Z" fill="#F3981C"/>
<path d="M146.446 18.2507C136.997 42.0453 148.66 69.0974 172.441 78.5517L191.845 86.2681L183.398 107.54L163.994 99.8239C128.491 85.702 111.082 45.3127 125.196 9.78949L146.456 18.2408L146.446 18.2507Z" fill="#F3981C"/>
<path d="M203.249 90.8761L191.845 86.278L181.285 106.786L194.803 112.158C218.376 121.712 229.899 148.625 220.49 172.32L241.75 180.771C255.814 145.348 238.544 105.097 203.249 90.8662V90.8761Z" fill="#F3981C"/>
<path d="M146.337 18.5387L147.469 15.6785C149.801 9.79938 146.933 3.14558 141.067 0.811797C135.191 -1.52199 128.541 1.34808 126.209 7.2173L125.077 10.0774L146.337 18.5287V18.5387Z" fill="#F3981C"/>
<path d="M221.085 170.88L219.775 173.661C217.075 179.371 219.517 186.204 225.224 188.905C230.931 191.606 237.76 189.163 240.46 183.453L241.77 180.672L221.085 170.88Z" fill="#F3981C"/>
</svg>
