<svg width="24" height="21" viewBox="0 0 24 21" fill="none" xmlns="http://www.w3.org/2000/svg">
<path fill-rule="evenodd" clip-rule="evenodd" d="M-8.85923e-07 2.86102e-05L-8.5859e-07 0.625322L-8.30824e-07 1.26054L-8.03057e-07 1.89577L-7.75291e-07 2.53099L-7.47525e-07 3.16621L-7.19758e-07 3.80144L-6.92425e-07 4.42673L-6.64659e-07 5.06195L-6.36893e-07 5.69717L-6.09126e-07 6.3324L-5.8136e-07 6.96762L-5.54027e-07 7.59292L-5.26261e-07 8.22814L-4.98494e-07 8.86336L-4.70728e-07 9.49858L-4.42961e-07 10.1338L0.744824 10.7591L1.48965 11.3943L2.23447 12.0295L2.96936 12.6648L3.71418 13.3L4.45901 13.9352L5.20383 14.5605L5.94866 15.1957L6.69348 15.8309L7.42837 16.4662L8.17319 17.1014L8.91801 17.7267L9.66284 18.3619L10.4077 18.9971L11.1525 19.6324L11.8874 20.2676L12.6322 19.6324L13.377 18.9971L14.1218 18.3619L14.8667 17.7267L15.6115 17.1014L16.3464 16.4662L17.0912 15.8309L17.836 15.1957L18.5809 14.5605L19.3257 13.9352L20.0705 13.3L20.8153 12.6648L21.5503 12.0295L22.2951 11.3943L23.0399 10.7591L23.7847 10.1338L23.7847 9.49858L23.7847 8.86336L23.7847 8.22814L23.7847 7.59292L23.7847 6.96762L23.7847 6.33239L23.7847 5.69717L23.7847 5.06195L23.7847 4.42673L23.7847 3.80144L23.7847 3.16621L23.7847 2.53099L23.7847 1.89576L23.7847 1.26054L23.7847 0.625321L23.7847 2.75706e-05L23.0399 0.625321L22.2951 1.26054L21.5503 1.89576L20.8153 2.53099L20.0705 3.16621L19.3257 3.80144L18.5809 4.42673L17.836 5.06195L17.0912 5.69717L16.3464 6.33239L15.6115 6.96762L14.8667 7.59292L14.1218 8.22814L13.377 8.86336L12.6322 9.49858L11.8874 10.1338L11.1525 9.49858L10.4077 8.86336L9.66284 8.22814L8.91801 7.59292L8.17319 6.96762L7.42836 6.3324L6.69348 5.69717L5.94866 5.06195L5.20383 4.42673L4.45901 3.80144L3.71418 3.16621L2.96936 2.53099L2.23447 1.89577L1.48965 1.26054L0.744824 0.625322L-8.85923e-07 2.86102e-05Z" fill="#9E9E9F"/>
</svg>
