<svg width="831" height="306" viewBox="0 0 831 306" fill="none" xmlns="http://www.w3.org/2000/svg">
<path d="M408.496 50.8092C408.496 53.851 408.467 56.4131 408.4 58.4857C408.342 61.3452 407.987 63.5139 407.354 64.9724C406.712 66.4309 405.724 67.4289 404.391 67.9375C403.048 68.4556 401.169 68.7147 398.733 68.7147C396.297 68.7147 393.257 67.8895 389.603 66.2486C385.949 64.6078 382.42 62.0169 379.015 58.4857C373.415 62.5639 367.334 66.0375 360.755 68.897C357.408 63.9648 354.608 60.165 352.354 57.4782C352.23 60.8846 351.549 63.322 350.302 64.7805C349.055 66.239 346.907 67.237 343.867 67.7456C340.827 68.2637 335.437 68.8011 327.708 69.348C326.912 65.6921 325.991 62.5927 324.926 60.0306C323.862 57.4686 322.327 54.8202 320.313 52.0854C324.572 52.0854 327.535 51.9894 329.213 51.8071C330.882 51.6248 331.831 51.3657 332.042 51.0299C332.253 50.694 332.33 50.0703 332.272 49.1587L324.514 49.6193C324.514 47.4315 324.361 45.2629 324.054 43.1326C323.747 41.0024 323.229 37.9222 322.5 33.9112L332.359 33.4506V29.6123H323.143V14.7198H332.359L332.455 12.6183L323.238 12.7047V2.19745L352.997 1.83281L363.134 1.65049V12.1578C358.626 12.2825 355.04 12.3401 352.364 12.3401V14.7102H365.052C364.927 8.99119 364.87 4.24132 364.87 0.460619H383.129V5.3928L392.806 3.05176e-05C398.224 3.10903 403.24 6.88014 407.872 11.3229L401.754 14.7006H407.594V29.5931H395.549L401.936 34.6212L399.749 37.5479C401.639 38.2772 403.451 38.8913 405.177 39.3711C406.913 39.8605 407.959 40.1676 408.323 40.2827C408.448 43.574 408.505 47.0764 408.505 50.79L408.496 50.8092ZM352.364 29.6219V32.4526L364.227 31.8097V46.5103C365.503 46.0209 367.296 45.2341 369.617 44.1402C368.034 40.1868 366.874 35.3409 366.145 29.6219H352.364ZM352.364 50.3582C356.075 49.389 359.394 48.3527 362.309 47.2492L352.364 47.8921V50.3582ZM392.068 14.739C389.325 12.1865 386.342 9.96035 383.12 8.07V14.739H392.068ZM388.874 29.6219H383.945C384.127 30.8406 384.367 32.1839 384.673 33.6425C385.585 32.8556 386.985 31.5122 388.874 29.6219ZM394.993 47.8921C394.993 46.9805 394.897 45.6083 394.714 43.7851L391.885 46.9805C392.854 47.8921 393.832 48.5062 394.81 48.8037C394.935 48.8037 394.993 48.4966 394.993 47.8921Z" fill="#353A3D"/>
<path d="M483.299 55.8373C489.082 55.8373 493.992 55.7126 498.04 55.4727C502.087 55.2328 506.21 54.6858 510.411 53.8318C509.807 56.3939 509.346 58.9943 509.04 61.6427C508.733 64.2911 508.55 65.9512 508.493 66.6228C508.493 67.0451 508.435 67.7456 508.311 68.7243L504.753 68.8203C494.894 69.1273 486.589 69.2809 479.828 69.2809C471.676 69.2809 464.992 68.7627 459.794 67.7263C454.586 66.69 450.501 65.1067 447.518 62.9765C446.607 65.1067 445.332 67.3617 443.682 69.7319C435.588 67.8415 428.194 66.69 421.5 66.2582C425.087 61.9306 427.695 57.814 429.306 53.8798C430.918 49.9552 431.723 46.376 431.723 43.1518H451.345V45.3396C451.891 48.7461 453.32 51.2122 455.632 52.7379V41.5973H423.044V31.733H509.04V41.5973H478.274V43.3341H504.839V53.6591H478.274V55.8469H483.299V55.8373ZM427.436 30.4471V1.13232H505.482V30.4471H427.436ZM483.76 12.4552V10.7184H448.976V12.4552H483.76ZM448.976 19.7575V21.6767H483.76V19.7575H448.976Z" fill="#353A3D"/>
<path d="M149.55 150.825C132.815 150.825 116.118 150.825 99.441 150.835V156.467C115.342 156.295 131.261 156.131 147.21 155.978V185.744C131.261 186.732 115.332 187.807 99.441 188.977V193.967C118.497 192.384 137.591 190.954 156.723 189.659V224.203C105.895 230.68 55.3068 239.076 5.11161 249.392V203.006C24.0043 200.953 42.9546 199.034 61.9432 197.268V191.904C46.1002 193.209 30.2859 194.6 14.5004 196.088V157.532C30.2763 157.312 46.0906 157.101 61.9432 156.909V150.844C45.3234 150.844 28.7419 150.844 12.1987 150.854V131.231C10.4437 131.509 7.58584 131.739 3.62507 131.931C3.51958 124.043 3.10722 114.649 2.38796 103.681C1.66869 92.7231 0.882301 83.4537 0 75.9019C1.69747 76.2569 3.40454 76.6024 5.10201 76.9574C11.585 77.9554 18.5379 78.3008 25.9703 78.0705C33.4028 77.8402 39.9337 76.7655 45.5536 74.8943C50.6268 73.2631 54.2711 71.3919 56.4768 69.2329C58.6826 67.0834 60.006 63.8689 60.4471 59.5796C74.0844 62.0745 87.741 64.4159 101.426 66.6133C100.534 70.3556 99.489 73.7333 98.271 76.7463C117.988 88.5298 139.461 94.4887 162.717 96.1488C161.72 101.724 160.742 108.354 159.792 116.069C158.843 123.775 158.152 130.703 157.711 136.796C153.818 136.182 151.094 135.654 149.54 135.213V150.825H149.55ZM57.1481 114.803C72.598 115.916 88.0862 116.962 103.603 117.931C93.6293 112.145 85.1612 106.061 78.1987 99.7855C71.6677 105.457 64.6573 110.475 57.1481 114.803Z" fill="#353A3D"/>
<path d="M329.117 101.052V132.814C327.659 132.795 326.202 132.776 324.744 132.756V190.839C324.744 196.913 323.344 201.346 320.544 204.196C317.743 207.046 313.121 209.042 306.686 210.232C300.251 211.422 290.2 212.42 276.553 213.35C267.385 213.984 258.217 214.675 249.048 215.433C248.713 207.094 247.821 199.696 246.363 193.19C244.905 186.694 242.057 181.531 237.818 177.664C256.136 178.374 268.497 178.633 274.875 178.441C278.788 178.317 281.617 178.048 283.353 177.616C285.089 177.184 286.153 176.618 286.537 175.898C286.93 175.188 287.122 174.075 287.122 172.559V157.791C281.08 164.278 275.038 170.88 268.996 177.635C259.828 170.084 250.046 163.319 239.66 157.34C236.14 164.921 232.62 172.617 229.11 180.428C228.775 179.401 228.218 177.271 227.432 174.037C226.368 170.285 225.313 166.524 224.248 162.743V218.513C212.251 219.664 200.253 220.931 188.275 222.303V178.422C184.928 189.313 180.363 199.504 174.571 209.157C172.451 188.92 168.999 171.542 164.223 156.813C168.788 153.809 172.988 150.47 176.824 146.785C180.661 143.1 184.477 138.763 188.266 133.802V133.246C183.029 133.102 177.793 132.948 172.557 132.795V95.1796C177.793 95.669 183.02 96.1392 188.266 96.5902V80.1048C200.244 81.4578 212.232 82.7052 224.239 83.8471V99.4593C228.199 99.7471 232.17 100.025 236.13 100.294V134.445C232.17 134.359 228.199 134.263 224.239 134.176V135.05C225.687 136.374 227.758 138.341 230.434 140.922C234.788 144.924 238.192 147.908 240.657 149.971C245.855 144.146 251.053 138.447 256.251 132.843C266.982 138.792 277.272 145.653 287.122 153.425V132.161C272.238 131.874 257.363 131.547 242.508 131.163V96.4462C257.363 97.5114 272.238 98.4325 287.122 99.2194V88.5106C299.656 89.307 312.19 89.9883 324.744 90.5545V100.918C326.202 100.975 327.659 101.023 329.117 101.081V101.052Z" fill="#353A3D"/>
<path d="M494.386 94.6039C494.721 107.779 494.894 120.647 494.894 133.217C494.894 145.576 494.721 157.465 494.386 168.874C494.156 177.491 492.592 184.679 489.677 190.398C486.761 196.126 480.346 200.895 470.429 204.734C460.513 208.591 445.687 210.702 425.95 211.508C425.95 206.048 425.029 200.483 423.178 194.812C421.327 189.141 418.661 183.978 415.19 179.334V204.052C401.399 204.052 387.608 204.187 373.817 204.446V206.739C362.779 206.96 351.741 207.257 340.702 207.651C340.702 171.58 340.702 135.501 340.702 99.4305C347.761 99.6608 354.819 99.8527 361.887 100.016C362.443 97.2619 363.009 94.5175 363.565 91.7732C374.211 92.0514 384.865 92.2338 395.51 92.3393C394.897 95.0645 394.273 97.7992 393.66 100.524C400.833 100.592 408.007 100.62 415.19 100.62V120.79C417.769 117.25 419.592 113.258 420.656 108.806C421.721 104.353 422.306 98.9411 422.421 92.5696C433.852 92.5312 445.293 92.3873 456.725 92.157V95.669C469.278 95.4291 481.832 95.0741 494.376 94.6135L494.386 94.6039ZM382.238 138.773V126.433C379.437 126.414 376.637 126.394 373.827 126.366V138.744C376.627 138.754 379.428 138.763 382.238 138.773ZM373.827 163.635V176.772C376.627 176.743 379.428 176.724 382.238 176.705V163.597C379.437 163.606 376.637 163.616 373.827 163.635ZM415.199 177.501C428.204 177.299 437.621 176.944 443.452 176.369C449.283 175.793 453.32 174.737 455.555 173.173C457.799 171.609 459.027 169.105 459.257 165.631C450.798 169.105 442.33 172.55 433.862 176.014C431.618 170.535 428.76 164.815 425.288 158.847C421.817 152.878 418.613 148.081 415.698 144.434C418.834 143.12 421.979 141.805 425.115 140.49C422.536 137.151 419.227 133.668 415.19 130.031V177.501H415.199ZM452.534 124.111C450.626 131.048 448.612 136.643 446.483 140.913C450.961 146.891 455.286 154.001 459.429 162.282C459.765 155.354 459.938 148.522 459.938 141.786C459.88 135.875 459.823 129.954 459.765 124.043C457.358 124.072 454.941 124.091 452.534 124.111Z" fill="#353A3D"/>
<path d="M573.63 151.151C571.453 153.387 569.266 155.604 567.089 157.811C570.215 157.839 573.352 157.868 576.478 157.887V154.347C587.823 154.395 599.159 154.452 610.485 154.519V158.223C626.222 158.396 641.941 158.588 657.64 158.799V206.825C657.64 216.546 644.962 219.732 619.528 217.131C618.301 208.792 615.347 200.387 610.657 192.106C615.683 192.403 619.078 192.413 620.871 192.106C622.655 191.799 623.547 191.05 623.547 189.841V183.009C619.193 182.798 614.848 182.596 610.494 182.395V219.079C599.168 217.966 587.833 216.949 576.488 216.028V180.984C573.975 180.888 571.462 180.802 568.94 180.706V211.259C557.144 210.405 545.338 209.646 533.533 208.994V182.155C527.155 185.178 521.219 187.634 515.733 189.572C513.604 183.076 511.533 177.722 509.519 173.48C507.505 169.249 504.647 164.969 500.945 160.67C512.703 159.192 522.677 156.055 530.848 151.142C523.07 151.142 515.283 151.142 507.505 151.142V128.198C512.262 128.122 517.028 128.026 521.785 127.939C519.541 122.892 516.971 118.44 514.055 114.582C511.14 110.715 507.39 106.771 502.796 102.76C510.747 103.01 519.819 102.923 530.013 102.472C538.856 102.079 546.576 101.474 553.174 100.668C545.118 98.4901 538.069 96.8205 532.027 95.6402C544.734 91.9843 557.432 88.1172 570.12 83.9719C579.844 85.6415 589.732 87.647 599.782 90.0459C608.941 86.9657 618.253 83.0794 627.738 78.2912C630.634 79.6634 634.038 81.4674 637.942 83.7511C648.309 89.3934 655.99 93.5484 660.997 95.8801C653.756 98.7108 647.8 100.879 643.12 102.472C644.511 103.048 645.902 103.624 647.302 104.2C653.315 106.608 657.16 108.306 658.829 109.199C649.699 112.49 642.401 115.129 636.944 117.259C631.478 119.38 625.906 122.009 620.219 125.089C635.841 124.494 651.435 123.823 667.019 123.084V151.238C635.976 151.209 604.846 151.19 573.658 151.18L573.63 151.151ZM523.291 127.882C533.648 127.671 543.996 127.44 554.344 127.172C555.178 125.838 556.022 124.494 556.856 123.151C546.345 124.907 535.154 126.481 523.281 127.882H523.291ZM615.184 125.243C610.725 122.451 604.635 119.236 596.934 115.686C585.205 118.324 574.531 120.359 564.912 121.904C576.372 121.52 587.833 121.088 599.274 120.608C597.931 122.403 596.598 124.178 595.256 125.953C601.902 125.732 608.548 125.492 615.184 125.243Z" fill="#353A3D"/>
<path d="M772.588 211.508C792.018 213.878 811.4 216.45 830.724 219.204V249.401C779.57 238.865 728.003 230.296 676.178 223.714V201.375C695.752 203.102 715.287 205.021 734.774 207.142V203.429C717.665 201.692 700.518 200.099 683.342 198.64V181.176C700.518 182.097 717.656 183.114 734.774 184.218V180.504C716.169 179.439 697.526 178.461 678.844 177.587V157.705C703.75 158.012 728.598 158.358 753.37 158.751C747.395 156.851 741.861 155.393 736.769 154.337C738.323 152.447 739.761 150.393 741.085 148.177C734.774 150.412 728.234 151.909 721.482 152.735C714.721 153.56 707.116 153.924 698.686 153.876C693.469 153.848 689.576 152.437 687.025 149.721C684.464 146.996 683.188 143.878 683.188 140.308V113.133C680.407 113.315 677.626 113.498 674.845 113.68V84.1638C682.076 83.3289 689.297 82.4557 696.519 81.5537V71.603C708.401 69.895 720.274 68.0814 732.118 66.1623V76.8039C737.431 76.0458 742.744 75.2782 748.057 74.4817V108.297C737.709 109.161 727.351 109.976 716.984 110.753C716.984 112.442 716.984 114.131 716.984 115.82C716.984 116.098 716.984 116.386 716.984 116.664C716.984 117.653 717.205 118.344 717.646 118.737C718.087 119.13 719.085 119.284 720.638 119.198C724.628 118.948 733.163 116.866 746.225 112.471C744.451 119.006 743.453 129.782 743.242 144.856C747.117 137.861 749.687 130.386 750.963 122.585C752.228 114.784 752.871 104.439 752.871 91.6196C752.813 83.3386 752.756 75.0575 752.708 66.7764C778.477 62.5159 804.159 57.766 829.737 52.5268V133.418C829.737 140.826 827.569 146.699 823.225 150.863C818.881 155.037 811.112 157.945 799.882 159.557C809.3 159.73 818.698 159.902 828.087 160.085V186.694C809.635 185.312 791.136 184.026 772.588 182.827V186.818C789.64 188.056 806.662 189.38 823.637 190.791V213.763C806.662 211.537 789.649 209.455 772.588 207.507V211.498V211.508ZM773.423 159.087C777.671 159.154 781.92 159.231 786.168 159.308C785.286 153.819 784.346 149.28 783.358 145.682C782.361 142.083 780.932 138.485 779.052 134.887C777.729 143.503 775.849 151.593 773.423 159.087ZM792.44 133.226C795.969 133.102 798.281 132.737 799.384 132.104C800.486 131.48 801.148 130.165 801.369 128.16C794.157 128.496 786.935 128.822 779.714 129.129C779.714 129.926 779.656 130.684 779.551 131.403C779.436 132.123 779.33 132.718 779.215 133.207C783.627 133.207 788.038 133.207 792.45 133.217L792.44 133.226ZM801.206 91.0535C801.206 89.4798 801.206 87.8965 801.206 86.3228C794.051 87.2728 786.888 88.194 779.714 89.0864V93.6155C786.888 92.7903 794.051 91.9363 801.206 91.0631V91.0535ZM801.369 112.222C801.311 110.648 801.263 109.074 801.206 107.5C794.099 108.134 786.993 108.748 779.877 109.343C779.935 110.849 779.992 112.356 780.04 113.862C787.156 113.335 794.262 112.788 801.369 112.222Z" fill="#353A3D"/>
<path d="M328.034 244.757V250.188H322.241V266.597H315.394V250.188H309.659V244.757H328.034Z" fill="#898989"/>
<path d="M351.616 244.757V266.597H344.769V258.086H338.266V266.597H331.419V244.757H338.266V252.626H344.769V244.757H351.616Z" fill="#898989"/>
<path d="M363.086 250.217V252.904H369.866V258.057H363.086V261.137H370.796V266.597H356.248V244.757H370.796V250.217H363.086Z" fill="#898989"/>
<path d="M401.897 244.757V266.597H395.05V258.086H388.548V266.597H381.7V244.757H388.548V252.626H395.05V244.757H401.897Z" fill="#898989"/>
<path d="M411.497 265.369C409.781 264.4 408.419 263.066 407.412 261.358C406.405 259.65 405.896 257.731 405.896 255.591C405.896 253.451 406.395 251.532 407.412 249.824C408.419 248.116 409.781 246.782 411.497 245.832C413.214 244.872 415.103 244.393 417.155 244.393C419.208 244.393 421.087 244.872 422.794 245.832C424.502 246.791 425.854 248.116 426.851 249.824C427.848 251.532 428.347 253.451 428.347 255.591C428.347 257.731 427.848 259.65 426.851 261.358C425.854 263.066 424.502 264.4 422.785 265.369C421.068 266.338 419.189 266.818 417.155 266.818C415.122 266.818 413.214 266.338 411.497 265.369ZM420.301 259.122C421.039 258.249 421.413 257.068 421.413 255.591C421.413 254.113 421.039 252.904 420.301 252.031C419.563 251.157 418.517 250.716 417.155 250.716C415.794 250.716 414.719 251.157 413.981 252.031C413.243 252.904 412.869 254.094 412.869 255.591C412.869 257.088 413.243 258.249 413.981 259.122C414.719 259.995 415.774 260.437 417.155 260.437C418.536 260.437 419.563 259.995 420.301 259.122Z" fill="#898989"/>
<path d="M449.244 256.003C448.611 257.126 447.672 258.009 446.425 258.671C445.178 259.333 443.672 259.659 441.908 259.659H439.194V266.597H432.346V244.757H441.898C444.574 244.757 446.617 245.438 448.046 246.791C449.475 248.154 450.184 249.968 450.184 252.251C450.184 253.633 449.868 254.881 449.225 256.003H449.244ZM443.26 252.261C443.26 250.927 442.55 250.255 441.131 250.255H439.184V254.266H441.131C442.55 254.266 443.26 253.595 443.26 252.261Z" fill="#898989"/>
<path d="M460.743 250.217V252.904H467.523V258.057H460.743V261.137H468.454V266.597H453.905V244.757H468.454V250.217H460.743Z" fill="#898989"/>
<path d="M484.345 265.369C482.628 264.4 481.266 263.066 480.259 261.358C479.252 259.65 478.744 257.731 478.744 255.591C478.744 253.451 479.243 251.532 480.259 249.824C481.266 248.116 482.628 246.782 484.345 245.832C486.061 244.872 487.95 244.393 490.003 244.393C492.055 244.393 493.935 244.872 495.642 245.832C497.349 246.791 498.701 248.116 499.699 249.824C500.696 251.532 501.195 253.451 501.195 255.591C501.195 257.731 500.696 259.65 499.699 261.358C498.701 263.066 497.349 264.4 495.632 265.369C493.916 266.338 492.036 266.818 490.003 266.818C487.97 266.818 486.061 266.338 484.345 265.369ZM493.148 259.122C493.887 258.249 494.261 257.068 494.261 255.591C494.261 254.113 493.887 252.904 493.148 252.031C492.41 251.157 491.365 250.716 490.003 250.716C488.641 250.716 487.567 251.157 486.828 252.031C486.09 252.904 485.716 254.094 485.716 255.591C485.716 257.088 486.09 258.249 486.828 259.122C487.567 259.995 488.631 260.437 490.003 260.437C491.374 260.437 492.41 259.995 493.148 259.122Z" fill="#898989"/>
<path d="M520.615 244.757V250.188H512.041V253.211H518.208V258.364H512.041V266.597H505.194V244.757H520.605H520.615Z" fill="#898989"/>
<path d="M265.265 283.015V288.446H259.473V304.855H252.626V288.446H246.891V283.015H265.265Z" fill="#898989"/>
<path d="M288.848 283.015V304.855H282V296.344H275.498V304.855H268.651V283.015H275.498V290.884H282V283.015H288.848Z" fill="#898989"/>
<path d="M300.318 288.466V291.152H307.098V296.305H300.318V299.385H308.028V304.845H293.48V283.006H308.028V288.466H300.318Z" fill="#898989"/>
<path d="M350.379 283.015L345.382 304.855H336.876L334.344 292.457L331.812 304.855H323.306L318.309 283.015H325.674L327.65 296.775L330.613 283.015H338.075L341.038 296.775L343.014 283.015H350.379Z" fill="#898989"/>
<path d="M374.584 283.015V304.855H367.737V296.344H361.235V304.855H354.387V283.015H361.235V290.884H367.737V283.015H374.584Z" fill="#898989"/>
<path d="M384.184 303.617C382.468 302.648 381.106 301.314 380.099 299.606C379.092 297.898 378.583 295.979 378.583 293.839C378.583 291.699 379.082 289.78 380.099 288.072C381.106 286.364 382.468 285.03 384.184 284.08C385.901 283.121 387.79 282.641 389.842 282.641C391.895 282.641 393.774 283.121 395.481 284.08C397.189 285.04 398.541 286.364 399.538 288.072C400.535 289.78 401.034 291.699 401.034 293.839C401.034 295.979 400.535 297.898 399.538 299.606C398.541 301.314 397.189 302.648 395.472 303.617C393.755 304.586 391.876 305.066 389.842 305.066C387.809 305.066 385.901 304.586 384.184 303.617ZM392.988 297.37C393.726 296.497 394.1 295.317 394.1 293.839C394.1 292.361 393.726 291.152 392.988 290.279C392.25 289.406 391.204 288.964 389.842 288.964C388.481 288.964 387.406 289.406 386.668 290.279C385.93 291.152 385.556 292.342 385.556 293.839C385.556 295.336 385.93 296.497 386.668 297.37C387.406 298.243 388.461 298.685 389.842 298.685C391.223 298.685 392.25 298.243 392.988 297.37Z" fill="#898989"/>
<path d="M411.881 299.664H418.479V304.845H405.033V283.006H411.881V299.664Z" fill="#898989"/>
<path d="M429.018 288.466V291.152H435.799V296.305H429.018V299.385H436.729V304.845H422.181V283.006H436.729V288.466H429.018Z" fill="#898989"/>
<path d="M469.623 283.015L462.287 304.855H453.435L446.099 283.015H453.378L457.875 298.032L462.344 283.015H469.623Z" fill="#898989"/>
<path d="M479.55 283.015V304.855H472.702V283.015H479.55Z" fill="#898989"/>
<path d="M491.019 299.664H497.617V304.845H484.172V283.006H491.019V299.664Z" fill="#898989"/>
<path d="M508.157 299.664H514.755V304.845H501.319V283.006H508.167V299.664H508.157Z" fill="#898989"/>
<path d="M532.449 301.544H525.17L524.096 304.845H516.913L524.901 283.006H532.794L540.745 304.845H533.533L532.459 301.544H532.449ZM530.78 296.401L528.805 290.327L526.829 296.401H530.78Z" fill="#898989"/>
<path d="M557.201 290.471C556.933 290.039 556.559 289.703 556.06 289.473C555.571 289.233 554.967 289.118 554.267 289.118C552.953 289.118 551.936 289.55 551.217 290.394C550.498 291.248 550.143 292.419 550.143 293.897C550.143 295.605 550.546 296.881 551.342 297.725C552.147 298.57 553.375 298.992 555.044 298.992C556.712 298.992 557.901 298.359 558.87 297.082H553.413V292.237H564.538V299.088C563.589 300.71 562.284 302.101 560.625 303.272C558.956 304.433 556.856 305.018 554.305 305.018C552.042 305.018 550.076 304.548 548.398 303.617C546.719 302.686 545.434 301.372 544.542 299.683C543.65 297.994 543.2 296.075 543.2 293.916C543.2 291.757 543.65 289.838 544.542 288.149C545.434 286.46 546.719 285.155 548.378 284.215C550.047 283.284 551.994 282.814 554.238 282.814C557.096 282.814 559.426 283.505 561.22 284.877C563.013 286.249 564.078 288.13 564.413 290.49H557.201V290.471Z" fill="#898989"/>
<path d="M575.394 288.466V291.152H582.174V296.305H575.394V299.385H583.105V304.845H568.556V283.006H583.105V288.466H575.394Z" fill="#898989"/>
<path d="M290.737 256.07H192.226" stroke="#898989" stroke-width="5.14" stroke-miterlimit="10"/>
<path d="M638.498 256.07H539.987" stroke="#898989" stroke-width="5.14" stroke-miterlimit="10"/>
<path d="M247.121 17.4738H230.156V34.4485H247.121V17.4738Z" fill="#898989"/>
<path d="M264.086 34.4485H247.121V51.4233H264.086V34.4485Z" fill="#898989"/>
<path d="M298.026 34.4485H281.061V51.4233H298.026V34.4485Z" fill="#898989"/>
<path d="M281.061 17.4738H264.095V34.4485H281.061V17.4738Z" fill="#898989"/>
<path d="M600.568 17.4738H583.603V34.4485H600.568V17.4738Z" fill="#898989"/>
<path d="M583.603 34.4485H566.638V51.4233H583.603V34.4485Z" fill="#898989"/>
<path d="M549.673 34.4485H532.708V51.4233H549.673V34.4485Z" fill="#898989"/>
<path d="M566.638 17.4738H549.673V34.4485H566.638V17.4738Z" fill="#898989"/>
</svg>
